<?xml version="1.0" encoding="UTF-8"?>
<svg version="1.1" xmlns="http://www.w3.org/2000/svg" width="1335" height="499">
<path d="M0 0 C5.26545308 2.15042874 7.19299392 6.07065087 9.8125 10.8125 C10.4631543 11.95428711 10.4631543 11.95428711 11.12695312 13.11914062 C12.42854742 15.40696496 13.71464775 17.70302322 15 20 C16.32821749 22.33628813 17.66460398 24.66779721 19 27 C19.64453125 28.13179687 20.2890625 29.26359375 20.953125 30.4296875 C28.26257617 43.21766494 35.87609187 55.83018829 43.46777344 68.45166016 C45.98161348 72.63258151 48.49058898 76.8164194 51 81 C51.99997606 82.66668103 52.99997607 84.33334769 54 86 C78.2109375 126.3515625 78.2109375 126.3515625 79.56933594 128.63769531 C80.59408772 130.32975987 81.64770382 132.00447424 82.71972656 133.66699219 C83.27885742 134.54774414 83.83798828 135.42849609 84.4140625 136.3359375 C84.93178223 137.13306152 85.44950195 137.93018555 85.98291016 138.75146484 C87 141 87 141 86.66162109 143.29150391 C86.44328613 143.85530762 86.22495117 144.41911133 86 145 C75.29140046 142.83669448 65.1327358 139.52600101 54.8125 136 C52.43545291 135.19333287 50.05780551 134.38848359 47.67961121 133.58520508 C46.21505099 133.08996065 44.75120557 132.59259433 43.2882843 132.0925293 C37.88740698 130.25775597 32.47472671 128.64241801 27 127 C27 211.48 27 295.96 27 383 C28.26689894 371.59790954 29.29566805 360.89100383 29.28710938 349.52929688 C29.29316009 348.08475367 29.30009081 346.64021393 29.30781555 345.19567871 C29.32250305 342.12828061 29.33140176 339.06094529 29.33552551 335.99351501 C29.34233713 331.13334905 29.36419723 326.27331601 29.38806152 321.41320801 C29.44075866 310.23309003 29.47454189 299.05293142 29.50782013 287.8727417 C29.53859519 277.59034831 29.57348661 267.30801352 29.62413073 257.02569628 C29.64733122 252.20306422 29.66118175 247.38052738 29.66762543 242.55784512 C29.6735957 239.5549277 29.68771699 236.55208726 29.70396996 233.54920959 C29.71256937 231.51166473 29.7114312 229.47408589 29.70991516 227.43652344 C29.75744721 220.35236823 30.38030166 213.88778687 32 207 C32.25056144 205.07505651 32.46967748 203.14525274 32.6328125 201.2109375 C32.71660156 200.25058594 32.80039063 199.29023438 32.88671875 198.30078125 C32.96535156 197.33527344 33.04398438 196.36976563 33.125 195.375 C33.25455078 193.86873047 33.25455078 193.86873047 33.38671875 192.33203125 C33.59617283 189.88840034 33.80051757 187.44446159 34 185 C39.64720282 184.95536088 45.24095289 184.98980677 50.875 185.4375 C52.47988281 185.55931641 52.47988281 185.55931641 54.1171875 185.68359375 C56.51380732 185.94663739 58.6889867 186.33572323 61 187 C61 189.31 61 191.62 61 194 C61.969375 193.50371094 62.93875 193.00742188 63.9375 192.49609375 C91.19832928 178.63535432 124.86607129 162.21696118 156 162 C159 163 159 163 160 165 C160.10205956 167.53734933 160.14338573 170.04750965 160.14044189 172.58531189 C160.14489858 173.77301385 160.14489858 173.77301385 160.1494453 174.9847098 C160.15815505 177.65249612 160.15964245 180.32023768 160.16113281 182.98803711 C160.16575931 184.89477129 160.17078374 186.80150453 160.17617798 188.70823669 C160.18931865 193.89823646 160.19574997 199.08822329 160.20018864 204.2782371 C160.20311617 207.51757594 160.20722032 210.7569112 160.21169281 213.99624825 C160.22537102 224.1223432 160.23503656 234.24843004 160.2388947 244.37453359 C160.24337892 256.08082937 160.26094234 267.78700859 160.2898953 279.49326891 C160.31147602 288.53107569 160.32159702 297.56884959 160.32293582 306.60668188 C160.32398628 312.00981054 160.32994524 317.41282968 160.34775543 322.81593132 C160.36417422 327.8958073 160.36642191 332.9754907 160.35761642 338.05538368 C160.35684276 339.9230844 160.36123179 341.79079521 160.37107468 343.65847015 C160.38369559 346.20178099 160.37797171 348.74439949 160.36749268 351.28770447 C160.37957728 352.40481628 160.37957728 352.40481628 160.39190602 353.544496 C160.34382168 358.51005851 160.34382168 358.51005851 158.6373558 360.94175053 C156.26934265 362.47223563 154.15296748 362.67943677 151.36328125 363.02734375 C150.23647949 363.17743896 149.10967773 363.32753418 147.94873047 363.48217773 C146.14879639 363.70756226 146.14879639 363.70756226 144.3125 363.9375 C133.95319206 365.35446594 124.06073316 367.11485853 114 370 C112.57190431 370.38519034 111.14350647 370.76926183 109.71484375 371.15234375 C100.67570008 373.62923357 92.41829689 376.83424484 84 381 C80.98485001 382.44957814 77.9613223 383.88112571 74.9375 385.3125 C74.21046875 385.66223877 73.4834375 386.01197754 72.734375 386.37231445 C71.70376953 386.86284302 71.70376953 386.86284302 70.65234375 387.36328125 C70.04382568 387.65501221 69.43530762 387.94674316 68.80834961 388.24731445 C66.89686817 389.04292634 65.01773849 389.54707234 63 390 C63 390.66 63 391.32 63 392 C61.35 392.33 59.7 392.66 58 393 C58 393.66 58 394.32 58 395 C56.2421875 395.94401042 54.484375 396.88802083 52.7265625 397.83203125 C50.32381752 399.45741756 49.16216141 401.19990173 48.5859375 404.04296875 C48.51632812 404.75066406 48.44671875 405.45835937 48.375 406.1875 C48.189375 408.0746875 48.189375 408.0746875 48 410 C49.07636719 409.41992188 50.15273438 408.83984375 51.26171875 408.2421875 C63.36620223 401.75192251 75.38609927 395.71719469 88.41796875 391.2734375 C91.23460864 390.27210205 93.97834714 389.20299375 96.7421875 388.0703125 C121.96047607 377.90697397 149.03514072 373.24707161 176 371 C176.33 309.29 176.66 247.58 177 184 C181.38415565 182.24633774 185.46310123 181.16830014 190.0625 180.3125 C190.76955078 180.17005859 191.47660156 180.02761719 192.20507812 179.88085938 C198.72151366 178.65099689 198.72151366 178.65099689 202 180 C203.79552722 181.79552722 203.12259239 184.23491299 203.12908131 186.62543541 C203.12616847 187.43962171 203.12325563 188.25380801 203.12025452 189.09266663 C203.12153615 190.38026726 203.12153615 190.38026726 203.12284368 191.69388002 C203.12450112 194.5928971 203.11897282 197.49185732 203.11352539 200.39086914 C203.11324355 202.45995584 203.11340119 204.52904263 203.1139679 206.59812927 C203.11425599 212.23426263 203.10835733 217.87037491 203.10139394 223.50650334 C203.09516239 229.38954262 203.09455676 235.27258232 203.09336853 241.15562439 C203.09025462 252.30454228 203.08204044 263.45345042 203.07201904 274.602364 C203.06085974 287.29138268 203.05534792 299.98040182 203.05032361 312.66942418 C203.03985787 338.77962153 203.02225729 364.88981022 203 391 C202.34 391 201.68 391 201 391 C201 391.66 201 392.32 201 393 C199.60599976 393.10489746 199.60599976 393.10489746 198.18383789 393.21191406 C162.64283993 395.93690645 129.40682186 401.0102632 96 414 C95.23993652 414.28987793 94.47987305 414.57975586 93.69677734 414.87841797 C64.56905199 426.02831597 37.58244024 443.143367 13.51171875 462.8515625 C12.93437988 463.315625 12.35704102 463.7796875 11.76220703 464.2578125 C10.15691203 465.54905812 8.56435446 466.85609304 6.97265625 468.1640625 C3.59441692 470.25049152 1.89614167 470.49992334 -2 470 C-4.875 468.625 -4.875 468.625 -7 467 C-7 466.34 -7 465.68 -7 465 C-7.804375 464.62875 -7.804375 464.62875 -8.625 464.25 C-11.5823982 462.69347463 -14.29724051 460.96564327 -17 459 C-17 458.34 -17 457.68 -17 457 C-17.72832031 456.73960937 -18.45664063 456.47921875 -19.20703125 456.2109375 C-22.08389209 454.9636272 -24.1990372 453.52440639 -26.6875 451.625 C-37.89169189 443.31661413 -49.47367565 435.18487265 -62 429 C-62.70898438 428.64760254 -63.41796875 428.29520508 -64.1484375 427.93212891 C-85.54919023 417.34862558 -106.84818803 408.91879767 -130 403 C-131.0003125 402.73928711 -132.000625 402.47857422 -133.03125 402.20996094 C-139.56718844 400.53187135 -146.09522417 399.11584069 -152.75 398 C-153.74281982 397.83048828 -154.73563965 397.66097656 -155.75854492 397.48632812 C-162.01449058 396.47645949 -168.25514494 395.74825657 -174.56640625 395.21875 C-175.29211823 395.15695557 -176.0178302 395.09516113 -176.76553345 395.03149414 C-180.36730697 394.72975601 -183.96877217 394.45461752 -187.57519531 394.21484375 C-188.88713867 394.11300781 -190.19908203 394.01117188 -191.55078125 393.90625 C-192.72294189 393.82697266 -193.89510254 393.74769531 -195.1027832 393.66601562 C-198 393 -198 393 -199.65768719 391.48112679 C-201.57595114 387.93541373 -201.4106224 384.56662296 -201.3742218 380.63595581 C-201.37819621 379.78457035 -201.38217061 378.93318489 -201.38626546 378.05599988 C-201.39590266 375.1984598 -201.38406182 372.34141304 -201.37231445 369.48388672 C-201.37474191 367.43730484 -201.37846078 365.39072414 -201.38337708 363.34414673 C-201.39279479 357.78238007 -201.38335381 352.22078911 -201.37004495 346.65903616 C-201.35874535 340.8463497 -201.36283672 335.03367207 -201.36479187 329.22097778 C-201.36567518 319.46092856 -201.35458559 309.70094876 -201.33618164 299.94091797 C-201.31500164 288.64372124 -201.31150644 277.34662613 -201.3177436 266.04941356 C-201.32343 255.19554795 -201.31780092 244.34171825 -201.30657005 233.48785782 C-201.30191566 228.86188215 -201.30105382 224.2359284 -201.3031559 219.60995102 C-201.30503385 214.16810545 -201.29697302 208.72636393 -201.2810955 203.28454208 C-201.2768384 201.28258698 -201.27601161 199.28062134 -201.27878571 197.27866364 C-201.28198758 194.55568564 -201.27297648 191.8330225 -201.26069641 189.1100769 C-201.26447573 188.30931382 -201.26825506 187.50855074 -201.27214891 186.68352211 C-201.22832929 181.22832929 -201.22832929 181.22832929 -199 179 C-195.86328125 179.28515625 -195.86328125 179.28515625 -192 180 C-190.71480469 180.22558594 -189.42960937 180.45117188 -188.10546875 180.68359375 C-186.81253906 180.93238281 -185.51960938 181.18117187 -184.1875 181.4375 C-183.52041016 181.55931641 -182.85332031 181.68113281 -182.16601562 181.80664062 C-177.23255404 182.76744596 -177.23255404 182.76744596 -175 185 C-174.79482649 187.47021199 -174.71486477 189.82970613 -174.7215271 192.30178833 C-174.7128385 193.44366271 -174.7128385 193.44366271 -174.70397437 194.60860527 C-174.68689772 197.17286894 -174.68409133 199.73695348 -174.68115234 202.30126953 C-174.67185944 204.13405808 -174.66169174 205.96684237 -174.65071106 207.79962158 C-174.62332501 212.78693834 -174.60823625 217.77422673 -174.59528303 222.76159906 C-174.57969001 227.96934434 -174.55288768 233.17703133 -174.5272522 238.38473511 C-174.4803964 248.25153514 -174.44368528 258.11834606 -174.41057932 267.98520076 C-174.37240589 279.21602467 -174.32298328 290.44679014 -174.27259517 301.67756486 C-174.1691742 324.78499997 -174.07994695 347.8924726 -174 371 C-172.84360016 371.13440491 -171.68720032 371.26880981 -170.49575806 371.4072876 C-168.95761685 371.58691703 -167.4194803 371.7665863 -165.88134766 371.94628906 C-165.12165176 372.03447906 -164.36195587 372.12266907 -163.57923889 372.21353149 C-124.20876321 376.82132156 -87.14370342 388.77374829 -52 407 C-52 403.04 -52 399.08 -52 395 C-53.65 394.34 -55.3 393.68 -57 393 C-58.51875378 392.13634248 -60.01842359 391.23848526 -61.5 390.3125 C-73.84006634 381.92748458 -73.84006634 381.92748458 -88 380 C-88.33 378.35 -88.66 376.7 -89 375 C-89.54817383 374.81824219 -90.09634766 374.63648438 -90.66113281 374.44921875 C-94.56705774 373.15112696 -98.46867343 371.8430915 -102.359375 370.5 C-120.23662608 364.36393373 -138.41014065 360.83345279 -157.14453125 358.52734375 C-159.86892289 358.02420713 -161.74498372 357.6032167 -164 356 C-165.39394048 352.26217047 -165.14517278 348.31035041 -165.14044189 344.37745667 C-165.14341302 343.6057754 -165.14638414 342.83409413 -165.1494453 342.03902858 C-165.15812243 339.45121967 -165.15963969 336.86345707 -165.16113281 334.27563477 C-165.16576158 332.42111106 -165.17078632 330.5665883 -165.17617798 328.71206665 C-165.18929591 323.67287267 -165.19574544 318.633692 -165.20018864 313.59448361 C-165.20311956 310.4472487 -165.20722435 307.30001743 -165.21169281 304.15278435 C-165.22536442 294.30861031 -165.23503346 284.4644446 -165.2388947 274.62026173 C-165.24337865 263.25076756 -165.26094361 251.88139343 -165.2898953 240.51193577 C-165.31149241 231.72628455 -165.32159788 222.94066715 -165.32293582 214.15498966 C-165.32398501 208.90608573 -165.32991728 203.65729468 -165.34775543 198.40841866 C-165.36420265 193.47296481 -165.36640794 188.53770914 -165.35761642 183.6022377 C-165.35684433 181.79020216 -165.36121145 179.9781561 -165.37107468 178.16614723 C-165.38374449 175.69370299 -165.37794479 173.22196594 -165.36749268 170.74952698 C-165.37554908 170.03143044 -165.38360548 169.31333389 -165.39190602 168.57347685 C-165.349072 164.24544717 -164.76477702 161.38636298 -162 158 C-156.22926051 157.16718574 -150.5511229 158.75132165 -144.9375 160.0625 C-143.98375488 160.28220459 -143.03000977 160.50190918 -142.04736328 160.72827148 C-130.36640468 163.50740209 -118.75216771 166.99746166 -107.55078125 171.3359375 C-99.02656579 174.61537646 -91.00018058 174.38389396 -82 174 C-80.5216774 176.95664519 -80.93967217 179.74229737 -81 183 C-79.78376953 183.35578125 -79.78376953 183.35578125 -78.54296875 183.71875 C-74.23294533 185.27739132 -70.33821638 187.32562688 -66.3125 189.5 C-65.55388672 189.90347656 -64.79527344 190.30695313 -64.01367188 190.72265625 C-60.90814996 192.38368562 -57.93442445 194.04371703 -55 196 C-55 194.68 -55 193.36 -55 192 C-50.10845663 190.79483714 -45.19724878 190.66538566 -40.1875 190.4375 C-39.30384766 190.39431641 -38.42019531 190.35113281 -37.50976562 190.30664062 C-35.34000377 190.20108464 -33.1700209 190.10008929 -31 190 C-30.56944245 195.71061299 -30.14230336 201.42146783 -29.71826172 207.13256836 C-29.57368233 209.07339295 -29.42818649 211.01414951 -29.28173828 212.95483398 C-29.07080092 215.75226524 -28.86321433 218.54992859 -28.65625 221.34765625 C-28.59062866 222.2083522 -28.52500732 223.06904816 -28.45739746 223.95582581 C-28.11347742 228.65303887 -27.93331312 233.29023887 -28 238 C-29.32 238.33 -30.64 238.66 -32 239 C-31.89242681 256.88159706 -31.77960794 274.76315312 -31.66066074 292.64467812 C-31.60554339 300.94865217 -31.55209849 309.25263051 -31.50268555 317.55664062 C-31.45957859 324.80017847 -31.41323711 332.04368744 -31.36312145 339.2871803 C-31.33673204 343.11729253 -31.31188767 346.94739983 -31.29092598 350.77754593 C-31.27108265 354.39396228 -31.24686447 358.01032474 -31.21950912 361.62669182 C-31.20593509 363.56344116 -31.19680325 365.5002201 -31.18788147 367.43699646 C-31.12841932 374.65843632 -30.79921626 381.81039494 -30.22106838 389.00937462 C-29.95201698 392.64911694 -29.90026737 396.22620206 -29.9375 399.875 C-29.94652344 401.04804688 -29.95554688 402.22109375 -29.96484375 403.4296875 C-29.98224609 404.70199219 -29.98224609 404.70199219 -30 406 C-30.99 406.33 -31.98 406.66 -33 407 C-33 407.66 -33 408.32 -33 409 C-36.96 409.33 -40.92 409.66 -45 410 C-45.33 409.01 -45.66 408.02 -46 407 C-46.99 407.66 -47.98 408.32 -49 409 C-45.73565792 411.01074559 -42.46252137 413.00670392 -39.1875 415 C-38.25873047 415.57234375 -37.32996094 416.1446875 -36.37304688 416.734375 C-35.48037109 417.27578125 -34.58769531 417.8171875 -33.66796875 418.375 C-32.84578857 418.87773437 -32.0236084 419.38046875 -31.17651367 419.8984375 C-28.96044859 421.22578593 -28.96044859 421.22578593 -26 421 C-26 324.31 -26 227.62 -26 128 C-32.43147181 129.28629436 -38.19666129 130.55099057 -44.28125 132.71484375 C-45.02024536 132.97125137 -45.75924072 133.227659 -46.52062988 133.49183655 C-48.84928339 134.30091605 -51.17475141 135.11869244 -53.5 135.9375 C-70.91379142 142.02960325 -70.91379142 142.02960325 -76.84375 143.94140625 C-77.56755859 144.17674072 -78.29136719 144.4120752 -79.03710938 144.65454102 C-81.31310641 145.05510517 -82.82044911 144.7090879 -85 144 C-80.78782835 135.30679469 -76.15589853 127.06971651 -71.0546875 118.875 C-68.00146625 113.95269654 -64.97478293 109.05047504 -62.25 103.9375 C-59.34991053 98.51178317 -56.18179853 93.26322708 -53 88 C-49.40513813 82.04898376 -45.88819904 76.09146428 -42.61328125 69.95703125 C-36.67807385 59.07821285 -30.31593138 48.43754045 -23.76953125 37.91796875 C-21.53124779 34.22702451 -19.48329669 30.45076476 -17.44921875 26.64453125 C-15.48218503 23.05509237 -13.35191953 19.57423211 -11.19921875 16.09375 C-9.86522163 13.92416581 -9.86522163 13.92416581 -9 11 C-8.34 11 -7.68 11 -7 11 C-6.9175 10.46375 -6.835 9.9275 -6.75 9.375 C-5.72706194 6.13569613 -3.99966302 3.72681321 -2 1 C-1.34 0.67 -0.68 0.34 0 0 Z M-144 183 C-143.67 234.15 -143.34 285.3 -143 338 C-139.13582476 339.5456701 -137.02397749 340.23123668 -133.125 340.6875 C-113.9548766 343.68947987 -94.48371378 351.14549913 -76.75 358.9375 C-75.72362427 359.3869397 -75.72362427 359.3869397 -74.67651367 359.84545898 C-67.89752143 362.90148986 -61.59801469 366.44722286 -55 370 C-55 336.67 -55 303.34 -55 269 C-56.98 269 -58.96 269 -61 269 C-60.98839844 267.94425781 -60.97679687 266.88851562 -60.96484375 265.80078125 C-60.90052156 257.14598356 -61.03135205 248.52125021 -61.4375 239.875 C-61.47673584 239.01173096 -61.51597168 238.14846191 -61.55639648 237.2590332 C-61.8156406 232.12938338 -62.30076218 227.08857102 -63 222 C-60.69 222 -58.38 222 -56 222 C-55.505 221.01 -55.505 221.01 -55 220 C-62.87386135 214.51745951 -71.00553179 209.42954543 -80 206 C-80.11381955 212.76594019 -79.88021369 219.28837062 -79 226 C-79.62003906 225.98839844 -80.24007812 225.97679687 -80.87890625 225.96484375 C-88.96332056 225.88246981 -96.94295895 226.39110081 -105 227 C-104.98839844 226.04222656 -104.97679687 225.08445313 -104.96484375 224.09765625 C-104.92663302 219.73111137 -104.95306903 215.36638545 -105 211 C-105.00580078 210.2152832 -105.01160156 209.43056641 -105.01757812 208.62207031 C-105.04624195 206.3088999 -105.11160872 203.99955421 -105.1875 201.6875 C-105.19608032 200.60384155 -105.19608032 200.60384155 -105.20483398 199.49829102 C-105.24954425 197.19780285 -105.24954425 197.19780285 -106 194 C-109.80983005 190.53789253 -115.44769697 189.41776302 -120.3125 187.9375 C-121.53743164 187.55368164 -121.53743164 187.55368164 -122.78710938 187.16210938 C-129.96659223 184.93675572 -136.40099069 183 -144 183 Z M67.83203125 213.95068359 C66.57071483 214.67311669 65.29619392 215.37281673 64.01171875 216.05322266 C59.97145943 218.07556764 59.97145943 218.07556764 58 222 C57.90280014 223.88917852 57.86502541 225.7816246 57.85955811 227.67329407 C57.85384796 228.85514282 57.84813782 230.03699158 57.84225464 231.25465393 C57.84113678 232.55289597 57.84001892 233.851138 57.83886719 235.1887207 C57.83423828 236.56857435 57.82921353 237.94842671 57.82382202 239.32827759 C57.81070265 243.07838272 57.80425393 246.82846995 57.79981136 250.57859445 C57.79687979 252.92195327 57.79277481 255.2653072 57.78830719 257.60866356 C57.77463325 264.94174213 57.76496619 272.27480953 57.7611053 279.60789996 C57.75662515 288.07050605 57.73907892 296.53295058 57.7101047 304.99550754 C57.68848172 311.53828617 57.67840068 318.08101937 57.67706418 324.62383336 C57.67601656 328.53084886 57.67011799 332.43771246 57.65224457 336.34469032 C57.63575321 340.02108441 57.63361341 343.6972126 57.64238358 347.37363052 C57.64351979 349.36202681 57.6298105 351.35041432 57.6156311 353.33876038 C57.62120026 354.5290686 57.62676941 355.71937683 57.63250732 356.945755 C57.63104076 357.97611028 57.6295742 359.00646555 57.6280632 360.06804371 C58.06749245 363.5320391 59.29620023 365.97589566 61 369 C61.7528125 368.64808594 62.505625 368.29617188 63.28125 367.93359375 C66.20804691 366.5732015 69.14054748 365.22642842 72.07617188 363.88525391 C73.90530796 363.04357276 75.72634608 362.18435852 77.546875 361.32421875 C85.49517903 357.63450651 93.61676616 354.61862851 101.9375 351.875 C103.31760254 351.40634521 103.31760254 351.40634521 104.72558594 350.92822266 C116.35646092 347.20843831 127.83092905 345.43381419 140 343 C140 291.19 140 239.38 140 186 C116.69631901 186 87.59308399 202.42516595 67.83203125 213.95068359 Z M26 400 C25.97299325 402.91672884 25.95315763 405.83320677 25.9375 408.75 C25.92912109 409.575 25.92074219 410.4 25.91210938 411.25 C25.90888672 412.04921875 25.90566406 412.8484375 25.90234375 413.671875 C25.89710693 414.4050293 25.89187012 415.13818359 25.88647461 415.89355469 C26.0024891 418.0461849 26.40926729 419.9314135 27 422 C30.06840512 421.36741004 32.41510621 420.33767168 35.109375 418.75 C35.86347656 418.3065625 36.61757812 417.863125 37.39453125 417.40625 C38.17183594 416.9421875 38.94914063 416.478125 39.75 416 C40.54277344 415.5359375 41.33554688 415.071875 42.15234375 414.59375 C45.11390098 412.85647234 45.11390098 412.85647234 48 411 C48 410.67 48 410.34 48 410 C42.72 409.67 37.44 409.34 32 409 C31.67 406.03 31.34 403.06 31 400 C29.35 400 27.7 400 26 400 Z " fill="#3461C5" transform="translate(213,16)"/>
<path d="M0 0 C4.76383257 0.53351148 9.33877988 1.41426899 14.00390625 2.50390625 C15.43452393 2.83346313 15.43452393 2.83346313 16.89404297 3.16967773 C28.57500157 5.94880834 40.18923854 9.43886791 51.390625 13.77734375 C59.91484046 17.05678271 67.94122567 16.82530021 76.94140625 16.44140625 C78.41972885 19.39805144 78.00173408 22.18370362 77.94140625 25.44140625 C78.75222656 25.67859375 79.56304687 25.91578125 80.3984375 26.16015625 C84.70846092 27.71879757 88.60318987 29.76703313 92.62890625 31.94140625 C93.38751953 32.34488281 94.14613281 32.74835938 94.92773438 33.1640625 C98.03325629 34.82509187 101.0069818 36.48512328 103.94140625 38.44140625 C103.94140625 37.12140625 103.94140625 35.80140625 103.94140625 34.44140625 C108.83294962 33.23624339 113.74415747 33.10679191 118.75390625 32.87890625 C119.63755859 32.83572266 120.52121094 32.79253906 121.43164062 32.74804688 C123.60140248 32.64249089 125.77138535 32.54149554 127.94140625 32.44140625 C128.3719638 38.15201924 128.79910289 43.86287408 129.22314453 49.57397461 C129.36772392 51.5147992 129.51321976 53.45555576 129.65966797 55.39624023 C129.87060533 58.19367149 130.07819192 60.99133484 130.28515625 63.7890625 C130.35077759 64.64975845 130.41639893 65.51045441 130.48400879 66.39723206 C130.82792883 71.09444512 131.00809313 75.73164512 130.94140625 80.44140625 C129.62140625 80.77140625 128.30140625 81.10140625 126.94140625 81.44140625 C127.04897944 99.32300331 127.16179831 117.20455937 127.28074551 135.08608437 C127.33586286 143.39005842 127.38930776 151.69403676 127.4387207 159.99804688 C127.48182766 167.24158472 127.52816914 174.48509369 127.5782848 181.72858655 C127.60467421 185.55869878 127.62951858 189.38880608 127.65048027 193.21895218 C127.6703236 196.83536853 127.69454178 200.45173099 127.72189713 204.06809807 C127.73547116 206.00484741 127.744603 207.94162635 127.75352478 209.87840271 C127.81298693 217.09984257 128.14218999 224.25180119 128.72033787 231.45078087 C128.98938927 235.09052319 129.04113888 238.66760831 129.00390625 242.31640625 C128.99488281 243.48945313 128.98585937 244.6625 128.9765625 245.87109375 C128.95916016 247.14339844 128.95916016 247.14339844 128.94140625 248.44140625 C127.95140625 248.77140625 126.96140625 249.10140625 125.94140625 249.44140625 C125.94140625 250.10140625 125.94140625 250.76140625 125.94140625 251.44140625 C121.98140625 251.77140625 118.02140625 252.10140625 113.94140625 252.44140625 C113.61140625 251.45140625 113.28140625 250.46140625 112.94140625 249.44140625 C110.96140625 249.77140625 108.98140625 250.10140625 106.94140625 250.44140625 C106.94140625 246.15140625 106.94140625 241.86140625 106.94140625 237.44140625 C105.29140625 236.78140625 103.64140625 236.12140625 101.94140625 235.44140625 C100.42265247 234.57774873 98.92298266 233.67989151 97.44140625 232.75390625 C85.10133991 224.36889083 85.10133991 224.36889083 70.94140625 222.44140625 C70.44640625 219.96640625 70.44640625 219.96640625 69.94140625 217.44140625 C69.39323242 217.25964844 68.84505859 217.07789063 68.28027344 216.890625 C64.37434851 215.59253321 60.47273282 214.28449775 56.58203125 212.94140625 C38.70478017 206.80533998 20.5312656 203.27485904 1.796875 200.96875 C-0.92751664 200.46561338 -2.80357747 200.04462295 -5.05859375 198.44140625 C-6.45253423 194.70357672 -6.20376653 190.75175666 -6.19903564 186.81886292 C-6.20200677 186.04718165 -6.20497789 185.27550038 -6.20803905 184.48043483 C-6.21671618 181.89262592 -6.21823344 179.30486332 -6.21972656 176.71704102 C-6.22435533 174.86251731 -6.22938007 173.00799455 -6.23477173 171.1534729 C-6.24788966 166.11427892 -6.25433919 161.07509825 -6.25878239 156.03588986 C-6.26171331 152.88865495 -6.2658181 149.74142368 -6.27028656 146.5941906 C-6.28395817 136.75001656 -6.29362721 126.90585085 -6.29748845 117.06166798 C-6.3019724 105.69217381 -6.31953736 94.32279968 -6.34848905 82.95334202 C-6.37008616 74.1676908 -6.38019163 65.3820734 -6.38152957 56.59639591 C-6.38257876 51.34749198 -6.38851103 46.09870093 -6.40634918 40.84982491 C-6.4227964 35.91437106 -6.42500169 30.97911539 -6.41621017 26.04364395 C-6.41543808 24.23160841 -6.4198052 22.41956235 -6.42966843 20.60755348 C-6.44233824 18.13510924 -6.43653854 15.66337219 -6.42608643 13.19093323 C-6.43414283 12.47283669 -6.44219923 11.75474014 -6.45049977 11.0148831 C-6.39798273 5.70846226 -5.86528494 0.84645875 0 0 Z M14.94140625 25.44140625 C15.27140625 76.59140625 15.60140625 127.74140625 15.94140625 180.44140625 C19.80558149 181.98707635 21.91742876 182.67264293 25.81640625 183.12890625 C44.98652965 186.13088612 64.45769247 193.58690538 82.19140625 201.37890625 C83.21778198 201.82834595 83.21778198 201.82834595 84.26489258 202.28686523 C91.04388482 205.34289611 97.34339156 208.88862911 103.94140625 212.44140625 C103.94140625 179.11140625 103.94140625 145.78140625 103.94140625 111.44140625 C101.96140625 111.44140625 99.98140625 111.44140625 97.94140625 111.44140625 C97.95300781 110.38566406 97.96460938 109.32992187 97.9765625 108.2421875 C98.04088469 99.58738981 97.9100542 90.96265646 97.50390625 82.31640625 C97.46467041 81.45313721 97.42543457 80.58986816 97.38500977 79.70043945 C97.12576565 74.57078963 96.64064407 69.52997727 95.94140625 64.44140625 C98.25140625 64.44140625 100.56140625 64.44140625 102.94140625 64.44140625 C103.43640625 63.45140625 103.43640625 63.45140625 103.94140625 62.44140625 C96.0675449 56.95886576 87.93587446 51.87095168 78.94140625 48.44140625 C78.8275867 55.20734644 79.06119256 61.72977687 79.94140625 68.44140625 C79.32136719 68.42980469 78.70132813 68.41820312 78.0625 68.40625 C69.97808569 68.32387606 61.9984473 68.83250706 53.94140625 69.44140625 C53.95300781 68.48363281 53.96460938 67.52585938 53.9765625 66.5390625 C54.01477323 62.17251762 53.98833722 57.8077917 53.94140625 53.44140625 C53.93560547 52.65668945 53.92980469 51.87197266 53.92382812 51.06347656 C53.8951643 48.75030615 53.82979753 46.44096046 53.75390625 44.12890625 C53.74532593 43.0452478 53.74532593 43.0452478 53.73657227 41.93969727 C53.691862 39.6392091 53.691862 39.6392091 52.94140625 36.44140625 C49.1315762 32.97929878 43.49370928 31.85916927 38.62890625 30.37890625 C37.40397461 29.99508789 37.40397461 29.99508789 36.15429688 29.60351562 C28.97481402 27.37816197 22.54041556 25.44140625 14.94140625 25.44140625 Z " fill="#FAC407" transform="translate(54.05859375,173.55859375)"/>
<path d="M0 0 C1.52622439 3.05244878 1.14432684 6.23619914 1.14044189 9.58531189 C1.14341302 10.3771132 1.14638414 11.16891451 1.1494453 11.9847098 C1.15815505 14.65249612 1.15964245 17.32023768 1.16113281 19.98803711 C1.16575931 21.89477129 1.17078374 23.80150453 1.17617798 25.70823669 C1.18931865 30.89823646 1.19574997 36.08822329 1.20018864 41.2782371 C1.20311617 44.51757594 1.20722032 47.7569112 1.21169281 50.99624825 C1.22537102 61.1223432 1.23503656 71.24843004 1.2388947 81.37453359 C1.24337892 93.08082937 1.26094234 104.78700859 1.2898953 116.49326891 C1.31147602 125.53107569 1.32159702 134.56884959 1.32293582 143.60668188 C1.32398628 149.00981054 1.32994524 154.41282968 1.34775543 159.81593132 C1.36417422 164.8958073 1.36642191 169.9754907 1.35761642 175.05538368 C1.35684276 176.9230844 1.36123179 178.79079521 1.37107468 180.65847015 C1.38369559 183.20178099 1.37797171 185.74439949 1.36749268 188.28770447 C1.37957728 189.40481628 1.37957728 189.40481628 1.39190602 190.544496 C1.34382168 195.51005851 1.34382168 195.51005851 -0.3626442 197.94175053 C-2.73065735 199.47223563 -4.84703252 199.67943677 -7.63671875 200.02734375 C-8.76352051 200.17743896 -9.89032227 200.32753418 -11.05126953 200.48217773 C-12.25122559 200.63243408 -13.45118164 200.78269043 -14.6875 200.9375 C-25.04680794 202.35446594 -34.93926684 204.11485853 -45 207 C-46.42809569 207.38519034 -47.85649353 207.76926183 -49.28515625 208.15234375 C-58.32429992 210.62923357 -66.58170311 213.83424484 -75 218 C-78.01514999 219.44957814 -81.0386777 220.88112571 -84.0625 222.3125 C-85.15304687 222.83710815 -85.15304687 222.83710815 -86.265625 223.37231445 C-87.29623047 223.86284302 -87.29623047 223.86284302 -88.34765625 224.36328125 C-88.95617432 224.65501221 -89.56469238 224.94674316 -90.19165039 225.24731445 C-92.10313183 226.04292634 -93.98226151 226.54707234 -96 227 C-96 227.66 -96 228.32 -96 229 C-97.65 229.33 -99.3 229.66 -101 230 C-101 230.66 -101 231.32 -101 232 C-102.7578125 232.94401042 -104.515625 233.88802083 -106.2734375 234.83203125 C-108.67618248 236.45741756 -109.83783859 238.19990173 -110.4140625 241.04296875 C-110.48367188 241.75066406 -110.55328125 242.45835937 -110.625 243.1875 C-110.74875 244.445625 -110.8725 245.70375 -111 247 C-113.64590014 247.02684679 -116.29153096 247.04676357 -118.9375 247.0625 C-119.69224609 247.07087891 -120.44699219 247.07925781 -121.22460938 247.08789062 C-123.14994313 247.09652441 -125.07535581 247.05224333 -127 247 C-128 246 -128 246 -128.09765625 243.93359375 C-128.08605469 243.10988281 -128.07445312 242.28617188 -128.0625 241.4375 C-128.05347656 240.61121094 -128.04445312 239.78492188 -128.03515625 238.93359375 C-128.01775391 237.97646484 -128.01775391 237.97646484 -128 237 C-129.65 237 -131.3 237 -133 237 C-132.88172844 234.54119656 -132.75529205 232.08317665 -132.625 229.625 C-132.5940625 228.965 -132.563125 228.305 -132.53125 227.625 C-132.33139652 223.96101949 -132.04976859 220.35091664 -131.53414917 216.71530151 C-129.44537682 201.40951349 -129.68274951 186.03294829 -129.66114616 170.6187191 C-129.65284596 166.55017873 -129.63191577 162.48170492 -129.61193848 158.41320801 C-129.55924134 147.23309003 -129.52545811 136.05293142 -129.49217987 124.8727417 C-129.46140481 114.59034831 -129.42651339 104.30801352 -129.37586927 94.02569628 C-129.35266878 89.20306422 -129.33881825 84.38052738 -129.33237457 79.55784512 C-129.3264043 76.5549277 -129.31228301 73.55208726 -129.29603004 70.54920959 C-129.28743063 68.51166473 -129.2885688 66.47408589 -129.29008484 64.43652344 C-129.24255279 57.35236823 -128.61969834 50.88778687 -127 44 C-126.74943856 42.07505651 -126.53032252 40.14525274 -126.3671875 38.2109375 C-126.28339844 37.25058594 -126.19960937 36.29023438 -126.11328125 35.30078125 C-126.03464844 34.33527344 -125.95601562 33.36976563 -125.875 32.375 C-125.78863281 31.37082031 -125.70226562 30.36664063 -125.61328125 29.33203125 C-125.40382717 26.88840034 -125.19948243 24.44446159 -125 22 C-119.35279718 21.95536088 -113.75904711 21.98980677 -108.125 22.4375 C-107.05507813 22.51871094 -105.98515625 22.59992188 -104.8828125 22.68359375 C-102.48619268 22.94663739 -100.3110133 23.33572323 -98 24 C-98 26.31 -98 28.62 -98 31 C-97.030625 30.50371094 -96.06125 30.00742188 -95.0625 29.49609375 C-24.25302341 -6.50690872 -24.25302341 -6.50690872 0 0 Z M-91.16796875 50.95068359 C-92.42928517 51.67311669 -93.70380608 52.37281673 -94.98828125 53.05322266 C-99.02854057 55.07556764 -99.02854057 55.07556764 -101 59 C-101.09719986 60.88917852 -101.13497459 62.7816246 -101.14044189 64.67329407 C-101.14615204 65.85514282 -101.15186218 67.03699158 -101.15774536 68.25465393 C-101.15886322 69.55289597 -101.15998108 70.851138 -101.16113281 72.1887207 C-101.16576172 73.56857435 -101.17078647 74.94842671 -101.17617798 76.32827759 C-101.18929735 80.07838272 -101.19574607 83.82846995 -101.20018864 87.57859445 C-101.20312021 89.92195327 -101.20722519 92.2653072 -101.21169281 94.60866356 C-101.22536675 101.94174213 -101.23503381 109.27480953 -101.2388947 116.60789996 C-101.24337485 125.07050605 -101.26092108 133.53295058 -101.2898953 141.99550754 C-101.31151828 148.53828617 -101.32159932 155.08101937 -101.32293582 161.62383336 C-101.32398344 165.53084886 -101.32988201 169.43771246 -101.34775543 173.34469032 C-101.36424679 177.02108441 -101.36638659 180.6972126 -101.35761642 184.37363052 C-101.35648021 186.36202681 -101.3701895 188.35041432 -101.3843689 190.33876038 C-101.37879974 191.5290686 -101.37323059 192.71937683 -101.36749268 193.945755 C-101.36895924 194.97611028 -101.3704258 196.00646555 -101.3719368 197.06804371 C-100.93250755 200.5320391 -99.70379977 202.97589566 -98 206 C-97.2471875 205.64808594 -96.494375 205.29617188 -95.71875 204.93359375 C-92.79195309 203.5732015 -89.85945252 202.22642842 -86.92382812 200.88525391 C-85.09469204 200.04357276 -83.27365392 199.18435852 -81.453125 198.32421875 C-73.50482097 194.63450651 -65.38323384 191.61862851 -57.0625 188.875 C-55.68239746 188.40634521 -55.68239746 188.40634521 -54.27441406 187.92822266 C-42.64353908 184.20843831 -31.16907095 182.43381419 -19 180 C-19 128.19 -19 76.38 -19 23 C-42.30368099 23 -71.40691601 39.42516595 -91.16796875 50.95068359 Z " fill="#FAC40A" transform="translate(372,179)"/>
<path d="M0 0 C22 0 22 0 26.8125 4.3125 C27.90934053 6.1886746 28.97165799 8.08542355 30 10 C31.3578967 11.73864028 32.7560072 13.44643459 34.1875 15.125 C37.97169307 19.73923197 41.73893156 24.36690199 45.5 29 C49.15882097 33.50647495 52.82125021 38.00976129 56.5 42.5 C63.54459581 51.10006314 70.54218409 59.738525 77.546875 68.37109375 C78.1253418 69.08370361 78.70380859 69.79631348 79.29980469 70.53051758 C80.39975151 71.88554971 81.49938217 73.24083858 82.59863281 74.59643555 C83.10233398 75.21687744 83.60603516 75.83731934 84.125 76.4765625 C84.56070313 77.01361816 84.99640625 77.55067383 85.4453125 78.10400391 C87.61428396 80.7491409 89.81012137 83.37214564 92 86 C92.33 57.62 92.66 29.24 93 0 C101.25 0 109.5 0 118 0 C118 43.56 118 87.12 118 132 C96 132 96 132 90.9375 127.5 C89.97215939 125.94261057 89.00961553 124.38248013 88.10498047 122.7890625 C85.92693683 119.26261448 83.15217377 116.17494176 80.5 113 C79.37295635 111.61624534 78.24791785 110.23085484 77.125 108.84375 C74.58996598 105.72370813 72.0477105 102.60970546 69.5 99.5 C65.25045829 94.31305939 61.02344227 89.10800115 56.796875 83.90234375 C53.70520667 80.09554653 50.60795137 76.29352888 47.5 72.5 C43.70071568 67.86035353 39.91027519 63.21357846 36.125 58.5625 C35.56490234 57.87542969 35.00480469 57.18835938 34.42773438 56.48046875 C33.89728516 55.82820313 33.36683594 55.1759375 32.8203125 54.50390625 C32.34867676 53.92455322 31.87704102 53.3452002 31.39111328 52.74829102 C29.88980557 50.8615124 28.44671663 48.92895551 27 47 C26.67 75.05 26.34 103.1 26 132 C17.42 132 8.84 132 0 132 C0 88.44 0 44.88 0 0 Z " fill="#F9C200" transform="translate(901,195)"/>
<path d="M0 0 C8.25 0 16.5 0 25 0 C25 46.2 25 92.4 25 140 C17.08 140 9.16 140 1 140 C0.67 136.7 0.34 133.4 0 130 C-1.4540625 131.36125 -1.4540625 131.36125 -2.9375 132.75 C-11.84991723 140.33808214 -23.18002636 142.55976776 -34.66015625 142.30859375 C-48.99554006 140.98403782 -61.1815723 136.02329417 -71.15234375 125.3359375 C-81.21153382 112.6183991 -84.25736524 97.65011094 -82.56640625 81.82421875 C-80.40287951 67.21668306 -73.88981783 55.69685822 -62.203125 46.6015625 C-50.75526122 38.79620083 -36.28723012 36.53923808 -22.75390625 38.4609375 C-14.51514883 40.1106298 -7.03662608 42.96337392 -1 49 C-0.67 32.83 -0.34 16.66 0 0 Z M-53 71 C-58.17015139 79.55325836 -59.44276539 89.14456702 -57.38671875 98.9140625 C-54.92615635 106.61009467 -50.68609744 113.2221984 -43.62109375 117.41015625 C-34.774761 121.47626306 -26.73704368 122.11723693 -17.453125 119.02734375 C-9.32213716 115.6221689 -4.5935444 109.95292612 -1 102 C1.89180504 93.53780552 1.67857444 84.54547215 -1.6875 76.25 C-5.91662404 67.82185244 -11.25047795 63.49403356 -20 60 C-32.93301484 56.10035049 -44.4653081 61.09226809 -53 71 Z " fill="#2E60CE" transform="translate(717,187)"/>
<path d="M0 0 C32.01 0 64.02 0 97 0 C97 7.26 97 14.52 97 22 C73.57 22 50.14 22 26 22 C26 32.89 26 43.78 26 55 C46.79 55 67.58 55 89 55 C89 61.93 89 68.86 89 76 C68.21 76 47.42 76 26 76 C26 87.55 26 99.1 26 111 C50.42 111 74.84 111 100 111 C100 117.93 100 124.86 100 132 C67 132 34 132 0 132 C0 88.44 0 44.88 0 0 Z " fill="#2F61CD" transform="translate(520,195)"/>
<path d="M0 0 C10.17963837 8.37717289 14.89069453 18.48236222 17.56640625 31.21875 C17.56640625 37.15875 17.56640625 43.09875 17.56640625 49.21875 C-8.17359375 49.21875 -33.91359375 49.21875 -60.43359375 49.21875 C-56.51962048 59.00368317 -53.27559583 64.79052477 -43.68359375 69.15625 C-32.37587453 72.85300436 -21.33239849 71.89574033 -10.43359375 67.21875 C-7.54263688 65.43635554 -4.94864793 63.4982553 -2.43359375 61.21875 C1.13348761 64.0028135 4.39684234 66.92451356 7.50390625 70.21875 C8.11105469 70.858125 8.71820312 71.4975 9.34375 72.15625 C10.56640625 74.21875 10.56640625 74.21875 10.56640625 76.71484375 C8.26068574 82.48815176 1.30729873 85.79615588 -4 88.55078125 C-19.26024033 95.09088425 -37.77721626 95.31059746 -53.31152344 89.51855469 C-67.12207027 83.76717452 -76.97807419 74.96208859 -82.75390625 61.03515625 C-86.94019291 48.37383471 -87.38038902 33.7359445 -82.43359375 21.21875 C-82.10488281 20.38214844 -81.77617188 19.54554688 -81.4375 18.68359375 C-75.8028477 6.06899153 -65.4027453 -2.72865663 -52.8046875 -7.96875 C-34.83788695 -14.12541312 -15.2366987 -11.152383 0 0 Z M-53.87109375 16.78125 C-58.33072957 21.8486335 -58.33072957 21.8486335 -61.43359375 32.21875 C-42.95359375 32.21875 -24.47359375 32.21875 -5.43359375 32.21875 C-8.91789049 21.76585977 -11.51394566 16.18593629 -21.28515625 11.12890625 C-32.19793477 6.50585644 -45.13839673 8.90565102 -53.87109375 16.78125 Z " fill="#F9C300" transform="translate(1128.43359375,235.78125)"/>
<path d="M0 0 C5.64720282 -0.04463912 11.24095289 -0.01019323 16.875 0.4375 C18.47988281 0.55931641 18.47988281 0.55931641 20.1171875 0.68359375 C22.51380732 0.94663739 24.6889867 1.33572323 27 2 C27.125 9.625 27.125 9.625 26 13 C24.81441702 22.0629155 24.85104958 31.1892632 24.85473633 40.31201172 C24.85173691 41.81141746 24.84833261 43.31082244 24.84455872 44.81022644 C24.8358019 48.84491818 24.83338437 52.87958867 24.83274293 56.914289 C24.83202858 59.43910915 24.82988721 61.963924 24.82724571 64.48874283 C24.81802547 73.30727732 24.81390734 82.12579678 24.81469727 90.94433594 C24.81529973 99.15149618 24.80470647 107.35859106 24.7889536 115.56573474 C24.7758777 122.63098327 24.77051327 129.69621038 24.77115268 136.76147091 C24.7714073 140.97347965 24.76857442 145.18542998 24.75797462 149.39742661 C24.74829082 153.35213904 24.74821634 157.30673715 24.75549126 161.26145363 C24.75653618 162.71024683 24.75417965 164.15904719 24.7481308 165.60782814 C24.74039646 167.58878784 24.74626155 169.5697866 24.75276184 171.55075073 C24.75221707 172.65790876 24.75167231 173.7650668 24.75111103 174.90577507 C25.01683528 178.20929873 25.82870605 180.91050093 27 184 C25.87720538 184.98169476 24.75168527 185.96027298 23.625 186.9375 C22.99851562 187.48277344 22.37203125 188.02804687 21.7265625 188.58984375 C20 190 20 190 18 191 C17.5167017 193.89382315 17.15498103 196.7104434 16.875 199.625 C16.78863281 200.42035156 16.70226562 201.21570313 16.61328125 202.03515625 C16.23275103 205.71361507 15.95677328 209.32403954 16.0078125 213.0234375 C16 216 16 216 15 217 C14.76924918 218.34747084 14.58846937 219.70377565 14.4375 221.0625 C14.2209375 223.0115625 14.2209375 223.0115625 14 225 C11.35409986 225.02684679 8.70846904 225.04676357 6.0625 225.0625 C5.30775391 225.07087891 4.55300781 225.07925781 3.77539062 225.08789062 C1.85005687 225.09652441 -0.07535581 225.05224333 -2 225 C-3 224 -3 224 -3.09765625 221.93359375 C-3.08605469 221.10988281 -3.07445312 220.28617188 -3.0625 219.4375 C-3.05347656 218.61121094 -3.04445312 217.78492188 -3.03515625 216.93359375 C-3.01775391 215.97646484 -3.01775391 215.97646484 -3 215 C-4.65 215 -6.3 215 -8 215 C-7.88172844 212.54119656 -7.75529205 210.08317665 -7.625 207.625 C-7.5940625 206.965 -7.563125 206.305 -7.53125 205.625 C-7.33139652 201.96101949 -7.04976859 198.35091664 -6.53414917 194.71530151 C-4.44537682 179.40951349 -4.68274951 164.03294829 -4.66114616 148.6187191 C-4.65284596 144.55017873 -4.63191577 140.48170492 -4.61193848 136.41320801 C-4.55924134 125.23309003 -4.52545811 114.05293142 -4.49217987 102.8727417 C-4.46140481 92.59034831 -4.42651339 82.30801352 -4.37586927 72.02569628 C-4.35266878 67.20306422 -4.33881825 62.38052738 -4.33237457 57.55784512 C-4.3264043 54.5549277 -4.31228301 51.55208726 -4.29603004 48.54920959 C-4.28743063 46.51166473 -4.2885688 44.47408589 -4.29008484 42.43652344 C-4.24255279 35.35236823 -3.61969834 28.88778687 -2 22 C-1.74943856 20.07505651 -1.53032252 18.14525274 -1.3671875 16.2109375 C-1.24150391 14.77041016 -1.24150391 14.77041016 -1.11328125 13.30078125 C-1.03464844 12.33527344 -0.95601562 11.36976563 -0.875 10.375 C-0.78863281 9.37082031 -0.70226562 8.36664063 -0.61328125 7.33203125 C-0.40382717 4.88840034 -0.19948243 2.44446159 0 0 Z " fill="#FEFDF7" transform="translate(247,201)"/>
<path d="M0 0 C7.92 0 15.84 0 24 0 C24.01458252 1.79550293 24.02916504 3.59100586 24.04418945 5.44091797 C24.09607167 11.40815602 24.16141796 17.37512278 24.23571491 23.3421154 C24.28022817 26.95591834 24.31952457 30.56961347 24.34643555 34.18359375 C24.37266078 37.67866463 24.41319423 41.17331633 24.46318626 44.66812515 C24.48771369 46.63419292 24.49784972 48.60042352 24.50764465 50.56661987 C24.65557464 59.68800307 25.0783078 69.28188698 32 76 C38.79996135 80.75997295 45.91334241 80.65567494 54 80 C61.19335793 78.3068108 66.04946672 74.14032392 70 68 C73.187151 60.01560142 73.4661178 51.94955229 73.51171875 43.45703125 C73.53864555 41.58261604 73.53864555 41.58261604 73.56611633 39.67033386 C73.61076364 36.38743969 73.64324602 33.10473751 73.66955566 29.82165527 C73.69961671 26.45584021 73.74605736 23.09025257 73.79101562 19.72460938 C73.87557802 13.14982545 73.94255498 6.5750745 74 0 C81.92 0 89.84 0 98 0 C98 33.33 98 66.66 98 101 C90.41 101 82.82 101 75 101 C74.67 97.7 74.34 94.4 74 91 C73.0925 91.886875 72.185 92.77375 71.25 93.6875 C61.50394534 102.06394617 49.37509808 103.61015022 37 103 C26.16065627 101.75355436 15.33856227 97.51014721 8.2734375 88.89453125 C2.45442511 80.56732387 -0.13208383 72.24985388 -0.11352539 62.09838867 C-0.11367142 61.42466217 -0.11381744 60.75093567 -0.1139679 60.05679321 C-0.11327472 57.84381826 -0.10551036 55.63092889 -0.09765625 53.41796875 C-0.09578995 51.87811835 -0.09436705 50.33826735 -0.09336853 48.79841614 C-0.08956002 44.75589341 -0.07974402 40.71340691 -0.06866455 36.67089844 C-0.05841455 32.54167165 -0.05386323 28.41243898 -0.04882812 24.28320312 C-0.0381202 16.18878365 -0.02053695 8.09440051 0 0 Z " fill="#2E60CE" transform="translate(771,226)"/>
<path d="M0 0 C0.43055755 5.71061299 0.85769664 11.42146783 1.28173828 17.13256836 C1.42631767 19.07339295 1.57181351 21.01414951 1.71826172 22.95483398 C1.92919908 25.75226524 2.13678567 28.54992859 2.34375 31.34765625 C2.40937134 32.2083522 2.47499268 33.06904816 2.54260254 33.95582581 C2.88652258 38.65303887 3.06668688 43.29023887 3 48 C1.02 48.495 1.02 48.495 -1 49 C-0.89242681 66.88159706 -0.77960794 84.76315312 -0.66066074 102.64467812 C-0.60554339 110.94865217 -0.55209849 119.25263051 -0.50268555 127.55664062 C-0.45957859 134.80017847 -0.41323711 142.04368744 -0.36312145 149.2871803 C-0.33673204 153.11729253 -0.31188767 156.94739983 -0.29092598 160.77754593 C-0.27108265 164.39396228 -0.24686447 168.01032474 -0.21950912 171.62669182 C-0.20593509 173.56344116 -0.19680325 175.5002201 -0.18788147 177.43699646 C-0.12841932 184.65843632 0.20078374 191.81039494 0.77893162 199.00937462 C1.04798302 202.64911694 1.09973263 206.22620206 1.0625 209.875 C1.05347656 211.04804688 1.04445312 212.22109375 1.03515625 213.4296875 C1.02355469 214.27789062 1.01195312 215.12609375 1 216 C0.01 216.33 -0.98 216.66 -2 217 C-2 217.66 -2 218.32 -2 219 C-5.96 219.33 -9.92 219.66 -14 220 C-14.33 219.01 -14.66 218.02 -15 217 C-16.98 217.33 -18.96 217.66 -21 218 C-23.20262405 189.46230537 -23.24683911 160.99454803 -23.1373291 132.3862915 C-23.11648446 126.34413089 -23.1076548 120.3019522 -23.09765625 114.25976562 C-23.07651542 102.50646473 -23.04260433 90.7532414 -23 79 C-25.31 79 -27.62 79 -30 79 C-30.28750692 73.59242296 -30.5722431 68.1847095 -30.85449219 62.77685547 C-30.95074894 60.93990203 -31.04774243 59.10298704 -31.14550781 57.26611328 C-31.28647812 54.61500836 -31.4247358 51.96377323 -31.5625 49.3125 C-31.60624756 48.50071289 -31.64999512 47.68892578 -31.69506836 46.85253906 C-31.94954394 41.89410548 -32.03972024 36.96502954 -32 32 C-24.375 30.875 -24.375 30.875 -21 32 C-21.1539624 31.29786377 -21.3079248 30.59572754 -21.46655273 29.87231445 C-22.01500527 26.91920505 -22.3048311 24.03719564 -22.53515625 21.04296875 C-22.62216797 19.93115234 -22.70917969 18.81933594 -22.79882812 17.67382812 C-22.88583984 16.52333984 -22.97285156 15.37285156 -23.0625 14.1875 C-23.19881836 12.43276367 -23.19881836 12.43276367 -23.33789062 10.64257812 C-23.56128894 7.76191563 -23.78189606 4.88106738 -24 2 C-19.79927812 1.11257438 -15.72671566 0.70584219 -11.4375 0.4375 C-9.48650391 0.31181641 -9.48650391 0.31181641 -7.49609375 0.18359375 C-5.00008579 0.05251847 -2.49944723 0 0 0 Z " fill="#FEFEFE" transform="translate(182,206)"/>
<path d="M0 0 C22.2084676 -3.32688304 22.2084676 -3.32688304 29.73632812 1.89990234 C34.48230835 6.74841918 37.99092968 12.34943183 41.36523438 18.20605469 C43.07002292 21.11967478 44.88930571 23.91057566 46.796875 26.6953125 C47.36245117 27.52305176 47.92802734 28.35079102 48.51074219 29.20361328 C49.00219727 29.7964209 49.49365234 30.38922852 50 31 C50.66 31 51.32 31 52 31 C53.46377767 29.39017134 53.46377767 29.39017134 54.94140625 27.265625 C55.51922852 26.46874268 56.09705078 25.67186035 56.69238281 24.85083008 C57.30952148 23.99255615 57.92666016 23.13428223 58.5625 22.25 C59.20670898 21.38850342 59.85091797 20.52700684 60.51464844 19.6394043 C63.30017428 15.89350925 65.983315 12.2818041 68.01171875 8.06640625 C70.07358355 4.20678068 71.24734895 2.32220747 75 0 C83.57664464 -1.42585102 92.37952838 -0.73158175 101 0 C99.76512279 3.38986619 98.41232266 6.0462497 96.1640625 8.86328125 C95.60025879 9.57742187 95.03645508 10.2915625 94.45556641 11.02734375 C93.85147949 11.78144531 93.24739258 12.53554687 92.625 13.3125 C91.35294549 14.92221282 90.08213543 16.53290974 88.8125 18.14453125 C87.8534375 19.36003662 87.8534375 19.36003662 86.875 20.60009766 C84.06883469 24.1918431 81.34391706 27.84202099 78.625 31.5 C74.20359803 37.43583068 69.68468302 43.26815254 65 49 C67.19372629 52.82854143 69.66264881 56.27170246 72.375 59.75 C73.2711262 60.9047207 74.16694387 62.05968088 75.0625 63.21484375 C75.53816406 63.8269873 76.01382812 64.43913086 76.50390625 65.06982422 C83.6776136 74.32493687 90.76218743 83.65067245 97.8125 93 C98.33440918 93.68876221 98.85631836 94.37752441 99.39404297 95.0871582 C103 99.88387694 103 99.88387694 103 101 C79.54833576 103.67624589 79.54833576 103.67624589 72.57519531 99.57324219 C68.56887679 95.79654674 65.9402798 91.19237429 63.34570312 86.37890625 C61.13881507 82.47761503 58.39945611 78.99658979 55.6875 75.4375 C54.7713334 74.18868967 53.8582138 72.93763381 52.94921875 71.68359375 C52.30597656 70.79800781 51.66273437 69.91242188 51 69 C45.9922183 73.63538306 42.03638109 79.00112883 37.9375 84.4375 C37.23044922 85.36626953 36.52339844 86.29503906 35.79492188 87.25195312 C35.10849609 88.15751953 34.42207031 89.06308594 33.71484375 89.99609375 C33.04791504 90.86137695 32.38098633 91.72666016 31.69384766 92.61816406 C29.81274579 95.09431517 29.81274579 95.09431517 28.39453125 98.63671875 C25.29227475 101.69848903 23.78315104 101.42784914 19.484375 101.5859375 C16.90559969 101.54605953 14.32716303 101.47451422 11.75 101.375 C10.43257812 101.34792969 9.11515625 101.32085937 7.7578125 101.29296875 C4.50356413 101.22222422 1.25260252 101.12354061 -2 101 C1.60715664 95.43670005 5.3544611 90.12214203 9.5625 85 C15.72508641 77.40009559 21.66206917 69.63949658 27.5859375 61.85302734 C30.36298939 58.2139003 33.17682063 54.60340349 36 51 C33.42451195 46.28614802 30.64232738 42.04688701 27.25 37.875 C22.29015408 31.66782477 17.43883738 25.38355582 12.625 19.0625 C11.94727539 18.17481934 11.26955078 17.28713867 10.57128906 16.37255859 C8.70537435 13.9215219 6.84868785 11.46405018 5 9 C4.47631836 8.30245605 3.95263672 7.60491211 3.41308594 6.88623047 C0 2.24390592 0 2.24390592 0 0 Z " fill="#FAC300" transform="translate(1153,226)"/>
<path d="M0 0 C7.92 0 15.84 0 24 0 C24 7.59 24 15.18 24 23 C32.91 23 41.82 23 51 23 C51 29.6 51 36.2 51 43 C42.09 43 33.18 43 24 43 C24.0740897 50.13560479 24.15700705 57.26997729 24.26245117 64.4050293 C24.29564466 66.83074498 24.32369384 69.25653686 24.34643555 71.68237305 C24.38008331 75.17529684 24.43240631 78.66752585 24.48828125 82.16015625 C24.49467117 83.23959 24.5010611 84.31902374 24.50764465 85.4311676 C24.62274668 91.36549545 25.09842492 95.77537376 28 101 C31.03565285 103.35961881 34.04673385 103.29799769 37.8125 103.3125 C39.30716797 103.33763672 39.30716797 103.33763672 40.83203125 103.36328125 C44.77254712 103.06474383 44.77254712 103.06474383 51 100 C53.31 105.61 55.62 111.22 58 117 C51.39174691 123.60825309 44.06633623 124.94756691 34.875 125.25 C25.61451942 125.13660636 16.16349248 123.16989845 9 117 C0.49191868 108.14306797 -0.44594563 98.51155886 -0.29296875 86.65234375 C-0.28872391 85.39990372 -0.28447906 84.14746368 -0.28010559 82.85707092 C-0.26623684 79.5575067 -0.2393727 76.25839767 -0.20599365 72.95898438 C-0.17508207 69.58013424 -0.16155563 66.20121697 -0.14648438 62.82226562 C-0.11352886 56.21464551 -0.06180482 49.6074107 0 43 C-5.61 43 -11.22 43 -17 43 C-17 36.4 -17 29.8 -17 23 C-11.39 23 -5.78 23 0 23 C0 15.41 0 7.82 0 0 Z " fill="#F9C200" transform="translate(1276,204)"/>
<path d="M0 0 C6.04938506 -0.32832483 11.13517668 0.85290903 16.9375 2.5 C17.88971436 2.76119629 18.84192871 3.02239258 19.82299805 3.29150391 C25.01163753 4.74788997 30.10834161 6.35554315 35.1796875 8.1796875 C47.1805515 12.48930065 57.20846896 15.25134543 70 14 C71.4783226 16.95664519 71.06032783 19.74229737 71 23 C71.81210938 23.23847656 72.62421875 23.47695312 73.4609375 23.72265625 C77.74353279 25.26836117 81.62099205 27.28604087 85.625 29.4375 C86.37523437 29.83259766 87.12546875 30.22769531 87.8984375 30.63476562 C89.33391969 31.39959257 90.7609895 32.18049073 92.17773438 32.97949219 C93.57256903 33.76062949 95.00274865 34.47894863 96.4453125 35.16796875 C99.23229828 38.45213038 98.965438 42.70735232 99.25 46.875 C99.36601562 48.22271484 99.36601562 48.22271484 99.484375 49.59765625 C99.82744225 53.7450942 100.03506894 57.83694713 100 62 C99.01 62 98.02 62 97 62 C97 61.34 97 60.68 97 60 C96.26007813 59.72671875 95.52015625 59.4534375 94.7578125 59.171875 C92.17401352 58.07394342 90.15807585 56.8646468 87.875 55.25 C82.79097169 51.76919815 77.44594169 48.87057113 72 46 C72.10828125 47.03447266 72.10828125 47.03447266 72.21875 48.08984375 C72.81193942 54.09588659 73.09892295 59.9657 73 66 C64.25190557 67.01848916 55.89184515 67 47 67 C46.01 50.665 46.01 50.665 45 34 C36.61056091 30.65013096 36.61056091 30.65013096 28 28 C28 27.34 28 26.68 28 26 C28.60328125 26.144375 29.2065625 26.28875 29.828125 26.4375 C30.62734375 26.623125 31.4265625 26.80875 32.25 27 C33.03890625 27.185625 33.8278125 27.37125 34.640625 27.5625 C37.25556002 28.12154828 37.25556002 28.12154828 41 28 C43.00401011 28.30830925 45.00511766 28.63729412 47 29 C47.33 28.34 47.66 27.68 48 27 C49.98 27 51.96 27 54 27 C54.33 23.7 54.66 20.4 55 17 C52.6178125 16.8453125 52.6178125 16.8453125 50.1875 16.6875 C46.15567271 16.42569303 44.72108183 15.91544482 42 13 C40.10024117 12.29157773 40.10024117 12.29157773 38.0625 11.9375 C35.0672329 11.27973717 32.74279065 10.37139533 30 9 C26.29589556 7.89407107 22.87845847 7 19 7 C18.67 7.66 18.34 8.32 18 9 C14.9375 9.625 14.9375 9.625 12 10 C11.87625 9.360625 11.7525 8.72125 11.625 8.0625 C11.41875 7.381875 11.2125 6.70125 11 6 C10.34 5.67 9.68 5.34 9 5 C9.66 4.67 10.32 4.34 11 4 C7.37 3.01 3.74 2.02 0 1 C0 0.67 0 0.34 0 0 Z " fill="#FAC20A" transform="translate(61,176)"/>
<path d="M0 0 C5.44567686 1.02862785 10.11817117 2.24614784 15 5 C15 5.66 15 6.32 15 7 C15.804375 7.185625 15.804375 7.185625 16.625 7.375 C19.47901595 8.12605683 22.23803841 8.95659229 25 10 C26.20270964 12.40541929 26.20316663 14.10366591 26.31640625 16.7890625 C26.35830078 17.73007813 26.40019531 18.67109375 26.44335938 19.640625 C26.48267578 20.62546875 26.52199219 21.6103125 26.5625 22.625 C26.60568359 23.61757812 26.64886719 24.61015625 26.69335938 25.6328125 C26.79961069 28.08839838 26.90164964 30.54408703 27 33 C18.29107122 33.96754595 9.75238459 34.10630427 1 34 C0.13387208 22.64753762 -0.11858127 11.38380184 0 0 Z " fill="#FEFEFC" transform="translate(107,209)"/>
<path d="M0 0 C0.33 0 0.66 0 1 0 C1.01030746 1.25406647 1.02061493 2.50813293 1.03123474 3.80020142 C1.12968795 15.71346664 1.23247842 27.6266879 1.33933926 39.53988075 C1.39412112 45.66215085 1.44746084 51.78442592 1.49731445 57.90673828 C1.54562884 63.83311794 1.59797977 69.75945033 1.65294075 75.68577194 C1.67306551 77.92835665 1.69182092 80.17095414 1.70907402 82.41356277 C1.82217367 96.96457473 2.23367264 111.46833361 3 126 C-0.39497374 124.67563731 -3.40816439 123.24489726 -6.5 121.3125 C-18.84006634 112.92748458 -18.84006634 112.92748458 -33 111 C-33.495 108.525 -33.495 108.525 -34 106 C-34.969375 105.71125 -35.93875 105.4225 -36.9375 105.125 C-40 104 -40 104 -41 102 C-39.68 102.33 -38.36 102.66 -37 103 C-37 102.34 -37 101.68 -37 101 C-34.6568787 101.25561323 -32.32156597 101.59270772 -30 102 C-29.67 102.66 -29.34 103.32 -29 104 C-22.32717912 105.07626143 -15.7462913 105.11348901 -9 105 C-9 102.69 -9 100.38 -9 98 C-11.8920268 96.67899505 -14.78922794 95.36973913 -17.6875 94.0625 C-18.50412109 93.68931641 -19.32074219 93.31613281 -20.16210938 92.93164062 C-24.10457046 91.15992734 -27.69496965 89.65028183 -32 89 C-32.66 88.67 -33.32 88.34 -34 88 C-34 87.34 -34 86.68 -34 86 C-35.0828125 85.814375 -35.0828125 85.814375 -36.1875 85.625 C-38.95721894 85.0095069 -41.3970354 84.11555626 -44 83 C-44 82.67 -44 82.34 -44 82 C-37.71241183 82.50787117 -32.69659292 84.03880574 -26.9375 86.5625 C-25.70990967 87.08952515 -25.70990967 87.08952515 -24.45751953 87.62719727 C-4.771307 96.228693 -4.771307 96.228693 -1 100 C-0.67 67 -0.34 34 0 0 Z " fill="#FBC109" transform="translate(158,285)"/>
<path d="M0 0 C3.6875 -0.3125 3.6875 -0.3125 7 0 C7 0.66 7 1.32 7 2 C4 4 4 4 1 4 C1 67.69 1 131.38 1 197 C5.95 197 10.9 197 16 197 C16 197.66 16 198.32 16 199 C20.455 199.99 20.455 199.99 25 201 C25 201.33 25 201.66 25 202 C4.55877547 202.70486981 4.55877547 202.70486981 -2 198 C-3.39077501 194.26011118 -3.14517396 190.31133895 -3.14044189 186.37745667 C-3.14341302 185.6057754 -3.14638414 184.83409413 -3.1494453 184.03902858 C-3.15812243 181.45121967 -3.15963969 178.86345707 -3.16113281 176.27563477 C-3.16576158 174.42111106 -3.17078632 172.5665883 -3.17617798 170.71206665 C-3.18929591 165.67287267 -3.19574544 160.633692 -3.20018864 155.59448361 C-3.20311956 152.4472487 -3.20722435 149.30001743 -3.21169281 146.15278435 C-3.22536442 136.30861031 -3.23503346 126.4644446 -3.2388947 116.62026173 C-3.24337865 105.25076756 -3.26094361 93.88139343 -3.2898953 82.51193577 C-3.31149241 73.72628455 -3.32159788 64.94066715 -3.32293582 56.15498966 C-3.32398501 50.90608573 -3.32991728 45.65729468 -3.34775543 40.40841866 C-3.36420265 35.47296481 -3.36640794 30.53770914 -3.35761642 25.6022377 C-3.35684433 23.79020216 -3.36121145 21.9781561 -3.37107468 20.16614723 C-3.38374449 17.69370299 -3.37794479 15.22196594 -3.36749268 12.74952698 C-3.37554908 12.03143044 -3.38360548 11.31333389 -3.39190602 10.57347685 C-3.34915925 6.25426274 -2.81016301 3.34945966 0 0 Z " fill="#F3C33D" transform="translate(51,174)"/>
<path d="M0 0 C-5.28567938 1.97093129 -10.2416002 3.28725019 -15.83203125 4.1015625 C-16.99065674 4.27252441 -18.14928223 4.44348633 -19.34301758 4.61962891 C-20.21982178 4.74515137 -21.09662598 4.87067383 -22 5 C-21.99907821 5.95675062 -21.99815641 6.91350124 -21.99720669 7.89924431 C-21.97503412 31.14967432 -21.95858708 54.40010296 -21.94818783 77.65054131 C-21.94302552 88.89414724 -21.93598404 100.1377462 -21.92456055 111.38134766 C-21.91461174 121.1781296 -21.9081461 130.97490649 -21.90591151 140.77169335 C-21.90460474 145.96183467 -21.90152099 151.15196154 -21.89426994 156.34209824 C-21.88750664 161.22244295 -21.88538368 166.1027672 -21.88689232 170.98311615 C-21.88661613 172.77866604 -21.88461284 174.57421657 -21.88079453 176.36976242 C-21.87585245 178.81260437 -21.87700364 181.25536808 -21.87974548 183.69821167 C-21.87683264 184.41610237 -21.8739198 185.13399307 -21.87091869 185.87363803 C-21.88587879 190.77175758 -21.88587879 190.77175758 -23 193 C-24.81567383 193.45483398 -24.81567383 193.45483398 -27.20703125 193.74609375 C-28.09479248 193.85985352 -28.98255371 193.97361328 -29.8972168 194.09082031 C-31.34028198 194.26242676 -31.34028198 194.26242676 -32.8125 194.4375 C-34.81529605 194.68988822 -36.81789676 194.94383073 -38.8203125 195.19921875 C-40.35606934 195.39330322 -40.35606934 195.39330322 -41.92285156 195.59130859 C-44.89118122 195.98554724 -47.84705274 196.42724318 -50.8046875 196.89453125 C-51.71114014 197.03769775 -52.61759277 197.18086426 -53.55151367 197.32836914 C-55.28165023 197.60510766 -57.01102057 197.88668882 -58.73950195 198.17358398 C-64.67148678 199.10950441 -64.67148678 199.10950441 -68 198 C-61.85585007 196.06749586 -55.66191805 194.9805337 -49.3125 193.9375 C-48.29994141 193.76412109 -47.28738281 193.59074219 -46.24414062 193.41210938 C-45.23158203 193.24388672 -44.21902344 193.07566406 -43.17578125 192.90234375 C-42.27770752 192.75273193 -41.37963379 192.60312012 -40.4543457 192.44897461 C-35.32346145 191.78209383 -30.15616889 191.42968074 -25 191 C-24.67 129.29 -24.34 67.58 -24 4 C-19.59571637 2.23828655 -15.49645568 1.16692213 -10.875 0.3125 C-10.15957031 0.17005859 -9.44414062 0.02761719 -8.70703125 -0.11914062 C-5.34363217 -0.75095671 -3.29905605 -1.09968535 0 0 Z " fill="#2B4AA6" transform="translate(414,196)"/>
<path d="M0 0 C6.30048653 0.47018556 11.99562503 2.51147686 17.9375 4.5625 C19.3925293 5.0565332 19.3925293 5.0565332 20.87695312 5.56054688 C23.25322384 6.3682448 25.62742969 7.18150948 28 8 C28 8.33 28 8.66 28 9 C18.79589464 7.68512781 9.90543821 4.67163146 1 2 C1 99.35 1 196.7 1 297 C8.03261122 293.16403025 14.90722011 289.3215784 21.67773438 285.08203125 C25.35542763 282.82783539 28.85384966 281.19368494 33 280 C31.83995232 283.48014304 31.39706743 283.62268926 28.2890625 285.2265625 C27.53882813 285.6184375 26.78859375 286.0103125 26.015625 286.4140625 C25.22671875 286.81367188 24.4378125 287.21328125 23.625 287.625 C22.45324219 288.23601562 22.45324219 288.23601562 21.2578125 288.859375 C18.18576683 290.44800136 15.28741916 291.90419361 12 293 C12 293.66 12 294.32 12 295 C10.75539217 295.67667998 9.50403104 296.34094719 8.25 297 C7.55390625 297.37125 6.8578125 297.7425 6.140625 298.125 C4 299 4 299 0 299 C-1.23676959 296.52646082 -1.12534072 294.90151187 -1.12584114 292.13395596 C-1.12844889 291.09950547 -1.13105664 290.06505498 -1.13374341 288.9992575 C-1.13151268 287.85404461 -1.12928196 286.70883172 -1.12698364 285.52891541 C-1.12854363 284.31918062 -1.13010362 283.10944584 -1.13171089 281.86305243 C-1.13502067 278.49461634 -1.13381417 275.12623562 -1.13072467 271.75780284 C-1.12847024 268.12928947 -1.13195038 264.50078108 -1.13470459 260.87226868 C-1.13916067 253.76011223 -1.13818657 246.64796631 -1.13529195 239.53580945 C-1.13303746 233.75830876 -1.13272559 227.98081102 -1.13381577 222.20331001 C-1.133969 221.38236279 -1.13412223 220.56141556 -1.13428011 219.71559115 C-1.13459982 218.04808795 -1.13492403 216.38058475 -1.1352527 214.71308155 C-1.13810697 199.06236553 -1.1348212 183.41165537 -1.12945233 167.76094032 C-1.12498351 154.31743059 -1.12576098 140.8739295 -1.13037109 127.43041992 C-1.13571635 111.83577935 -1.13783317 96.24114391 -1.13475883 80.64650255 C-1.13444026 78.98529311 -1.13412589 77.32408367 -1.13381577 75.66287422 C-1.13366149 74.84542827 -1.13350721 74.02798232 -1.13334826 73.18576528 C-1.13248302 67.41137317 -1.13394612 61.6369843 -1.13629532 55.8625927 C-1.13909294 48.83112991 -1.13835583 41.79967828 -1.13301457 34.76821678 C-1.13037717 31.17727524 -1.12937316 27.58635235 -1.13266373 23.99541092 C-1.13616896 20.11163026 -1.13199836 16.2278805 -1.12698364 12.34410095 C-1.12921436 11.19665734 -1.13144509 10.04921372 -1.13374341 8.86699909 C-1.13113566 7.83515635 -1.12852791 6.80331361 -1.12584114 5.7402029 C-1.12567879 4.84248903 -1.12551644 3.94477515 -1.12534916 3.01985782 C-1 1 -1 1 0 0 Z " fill="#2E4AAD" transform="translate(239,141)"/>
<path d="M0 0 C5.26450714 2.15004241 7.19450214 6.07028849 9.8125 10.8125 C10.45119019 11.93906006 10.45119019 11.93906006 11.1027832 13.08837891 C11.97815621 14.63311646 12.84916364 16.18033592 13.71582031 17.72998047 C14.93370872 19.88281819 16.18742206 22.00861114 17.4609375 24.12890625 C17.83758545 24.76272217 18.2142334 25.39653809 18.60229492 26.04956055 C19.63215079 27.78189628 20.66558407 29.51210382 21.69921875 31.2421875 C23 34 23 34 22 37 C13.34680964 22.75107987 13.34680964 22.75107987 9.75 16 C7.46174038 11.72389474 4.92257905 7.86811933 2 4 C0.08249887 4.17418852 0.08249887 4.17418852 -2 5 C-3.55600683 6.90302693 -3.55600683 6.90302693 -4.8046875 9.33984375 C-5.30613281 10.23896484 -5.80757813 11.13808594 -6.32421875 12.06445312 C-6.83597656 13.01255859 -7.34773438 13.96066406 -7.875 14.9375 C-8.8921277 16.78055621 -9.91035485 18.62300611 -10.9296875 20.46484375 C-11.43564453 21.38547607 -11.94160156 22.3061084 -12.46289062 23.25463867 C-14.42731216 26.76320286 -16.49809594 30.20100502 -18.58056641 33.64038086 C-20.69953757 37.16288795 -22.73261613 40.73111644 -24.75 44.3125 C-25.13542969 44.98861328 -25.52085937 45.66472656 -25.91796875 46.36132812 C-27.88430019 49.84833456 -29.51500513 53.27724787 -31 57 C-31.598125 57.556875 -32.19625 58.11375 -32.8125 58.6875 C-34.93323516 60.92942003 -35.84384244 62.54696841 -37.140625 65.30078125 C-40.379019 71.91277532 -44.15716724 78.18981286 -47.9375 84.5 C-48.63508457 85.67038287 -49.3323516 86.84095507 -50.02929688 88.01171875 C-52.59083159 92.31122476 -55.15975671 96.60622203 -57.74365234 100.89233398 C-58.26781738 101.76188721 -58.79198242 102.63144043 -59.33203125 103.52734375 C-59.78425049 104.27491943 -60.23646973 105.02249512 -60.70239258 105.79272461 C-62.1098168 108.18680219 -63.43660294 110.61572463 -64.75 113.0625 C-68.24065755 119.53456798 -71.98770123 125.85147489 -75.73046875 132.1796875 C-76.31513916 133.17307129 -76.31513916 133.17307129 -76.91162109 134.18652344 C-77.83922885 135.73212022 -78.81523758 137.24849834 -79.80078125 138.7578125 C-81.31441631 141.16407621 -81.31441631 141.16407621 -81 145 C-82.32 144.67 -83.64 144.34 -85 144 C-80.78782835 135.30679469 -76.15589853 127.06971651 -71.0546875 118.875 C-68.00146625 113.95269654 -64.97478293 109.05047504 -62.25 103.9375 C-59.34991053 98.51178317 -56.18179853 93.26322708 -53 88 C-49.40513813 82.04898376 -45.88819904 76.09146428 -42.61328125 69.95703125 C-36.67807385 59.07821285 -30.31593138 48.43754045 -23.76953125 37.91796875 C-21.53124779 34.22702451 -19.48329669 30.45076476 -17.44921875 26.64453125 C-15.48218503 23.05509237 -13.35191953 19.57423211 -11.19921875 16.09375 C-9.86522163 13.92416581 -9.86522163 13.92416581 -9 11 C-8.34 11 -7.68 11 -7 11 C-6.9175 10.46375 -6.835 9.9275 -6.75 9.375 C-5.72706194 6.13569613 -3.99966302 3.72681321 -2 1 C-1.34 0.67 -0.68 0.34 0 0 Z " fill="#2B4EA7" transform="translate(213,16)"/>
<path d="M0 0 C1.093125 0.103125 2.18625 0.20625 3.3125 0.3125 C3.3125 0.9725 3.3125 1.6325 3.3125 2.3125 C0.3125 4.3125 0.3125 4.3125 -2.6875 4.3125 C-3.0175 67.6725 -3.3475 131.0325 -3.6875 196.3125 C-4.0175 196.3125 -4.3475 196.3125 -4.6875 196.3125 C-5.0175 146.1525 -5.3475 95.9925 -5.6875 44.3125 C-6.0175 44.3125 -6.3475 44.3125 -6.6875 44.3125 C-6.76178762 38.84988362 -6.81616714 33.38756284 -6.85229492 27.92456055 C-6.86735946 26.06708655 -6.88781509 24.20964799 -6.91381836 22.35229492 C-6.95030459 19.67878461 -6.9672497 17.00574556 -6.98046875 14.33203125 C-6.99595261 13.50476028 -7.01143646 12.67748932 -7.02738953 11.82514954 C-7.0291018 5.92773649 -6.92188521 0.58660044 0 0 Z " fill="#F1C015" transform="translate(54.6875,173.6875)"/>
<path d="M0 0 C6.04938506 -0.32832483 11.13517668 0.85290903 16.9375 2.5 C17.88971436 2.76119629 18.84192871 3.02239258 19.82299805 3.29150391 C25.01163753 4.74788997 30.10834161 6.35554315 35.1796875 8.1796875 C47.1805515 12.48930065 57.20846896 15.25134543 70 14 C71.60725635 17.21451269 71.05748185 20.43612536 71 24 C65.75986047 22.32864579 60.7083484 20.2802009 55.65429688 18.12304688 C52.41537133 16.78819678 49.57062052 15.93866007 46.08984375 15.44140625 C45.07019531 15.29574219 44.05054688 15.15007812 43 15 C42.505 14.01 42.505 14.01 42 13 C39.99979202 12.47535528 37.99723129 11.95689488 35.98046875 11.5 C33.78700076 10.94622504 32.01919672 10.00959836 30 9 C26.29589556 7.89407107 22.87845847 7 19 7 C18.67 7.66 18.34 8.32 18 9 C14.9375 9.625 14.9375 9.625 12 10 C11.87625 9.360625 11.7525 8.72125 11.625 8.0625 C11.41875 7.381875 11.2125 6.70125 11 6 C10.34 5.67 9.68 5.34 9 5 C9.66 4.67 10.32 4.34 11 4 C7.37 3.01 3.74 2.02 0 1 C0 0.67 0 0.34 0 0 Z " fill="#FAC312" transform="translate(61,176)"/>
<path d="M0 0 C0.495 0.99 0.495 0.99 1 2 C2.953125 1.47916667 4.90625 0.95833333 6.859375 0.4375 C9 0 9 0 13 0 C13 0.66 13 1.32 13 2 C12.28046143 2.1858667 11.56092285 2.3717334 10.81958008 2.56323242 C-7.92559658 7.26903256 -7.92559658 7.26903256 -26 14 C-26.88921143 14.39421143 -26.88921143 14.39421143 -27.79638672 14.79638672 C-35.36828413 18.17473647 -42.69116896 21.79233066 -49.828125 26.03125 C-52 27 -52 27 -55 26 C-54.28972656 25.61328125 -53.57945312 25.2265625 -52.84765625 24.828125 C-51.92855469 24.30734375 -51.00945312 23.7865625 -50.0625 23.25 C-49.14597656 22.73953125 -48.22945313 22.2290625 -47.28515625 21.703125 C-44.85107487 20.21139705 -44.85107487 20.21139705 -44.18359375 17.796875 C-44.12300781 17.20390625 -44.06242187 16.6109375 -44 16 C-42.4221875 15.7834375 -42.4221875 15.7834375 -40.8125 15.5625 C-34.82671644 14.67935161 -29.76089165 13.23619072 -24.1875 10.9375 C-23.49462891 10.65583984 -22.80175781 10.37417969 -22.08789062 10.08398438 C-20.39032376 9.39325027 -18.69493688 8.69716272 -17 8 C-17.66 8 -18.32 8 -19 8 C-18.67 7.01 -18.34 6.02 -18 5 C-12.06 4.505 -12.06 4.505 -6 4 C-5.67 3.01 -5.34 2.02 -5 1 C-3 0 -3 0 0 0 Z " fill="#FACE27" transform="translate(336,202)"/>
<path d="M0 0 C4.185623 3.61973458 6.52072798 8.05158439 9.1875 12.8125 C10.16828891 14.5357155 11.15007138 16.25836584 12.1328125 17.98046875 C12.61782227 18.83302246 13.10283203 19.68557617 13.60253906 20.56396484 C15.54275279 23.94611938 17.54416321 27.28905598 19.5625 30.625 C23.1275217 36.52835221 26.63235991 42.46466734 30.10498047 48.42285156 C32.38208182 52.31197351 34.7120786 56.15872012 37.11328125 59.97265625 C37.62584473 60.79145264 38.1384082 61.61024902 38.66650391 62.45385742 C39.66393611 64.04158376 40.66985791 65.62401518 41.68505859 67.20043945 C42.13316895 67.91546631 42.5812793 68.63049316 43.04296875 69.3671875 C43.44539795 69.99737793 43.84782715 70.62756836 44.26245117 71.27685547 C45 73 45 73 44 76 C43.265625 74.77604167 42.53125 73.55208333 41.796875 72.328125 C41.31742432 71.52906738 40.83797363 70.73000977 40.34399414 69.90673828 C39.26495996 68.1082929 38.18602401 66.30978858 37.10717773 64.51123047 C34.4031093 60.00353783 31.69789453 55.4965496 28.98828125 50.9921875 C23.11930916 41.23077932 17.30154678 31.44133384 11.53271484 21.62036133 C8.19090491 15.95094549 4.76043895 10.37924504 1.07421875 4.92578125 C0 3 0 3 0 0 Z " fill="#2B4FA4" transform="translate(252,79)"/>
<path d="M0 0 C1.093125 0.103125 2.18625 0.20625 3.3125 0.3125 C3.3125 0.9725 3.3125 1.6325 3.3125 2.3125 C0.3125 4.3125 0.3125 4.3125 -2.6875 4.3125 C-3.0175 17.5125 -3.3475 30.7125 -3.6875 44.3125 C-4.6775 44.3125 -5.6675 44.3125 -6.6875 44.3125 C-6.76178762 38.84988362 -6.81616714 33.38756284 -6.85229492 27.92456055 C-6.86735946 26.06708655 -6.88781509 24.20964799 -6.91381836 22.35229492 C-6.95030459 19.67878461 -6.9672497 17.00574556 -6.98046875 14.33203125 C-6.99595261 13.50476028 -7.01143646 12.67748932 -7.02738953 11.82514954 C-7.0291018 5.92773649 -6.92188521 0.58660044 0 0 Z " fill="#EBBF26" transform="translate(54.6875,173.6875)"/>
<path d="M0 0 C1.52519276 0.08937803 3.04681929 0.24537146 4.5625 0.4375 C5.38878906 0.53933594 6.21507812 0.64117187 7.06640625 0.74609375 C7.70449219 0.82988281 8.34257812 0.91367187 9 1 C9 1.66 9 2.32 9 3 C8.21238281 3.21914063 7.42476563 3.43828125 6.61328125 3.6640625 C-2.46208663 6.30612226 -10.70632162 9.91522308 -19.17871094 14.06787109 C-20.72374752 14.82343246 -22.27063814 15.575214 -23.81933594 16.32324219 C-25.33485163 17.05564516 -26.84610521 17.79694613 -28.35253906 18.54785156 C-33.66263264 21.11245579 -33.66263264 21.11245579 -37 20 C-36.49025635 19.74307373 -35.9805127 19.48614746 -35.45532227 19.22143555 C-33.15242685 18.05355924 -30.85751527 16.87078126 -28.5625 15.6875 C-27.76005859 15.28337891 -26.95761719 14.87925781 -26.13085938 14.46289062 C-24.98520508 13.86831055 -24.98520508 13.86831055 -23.81640625 13.26171875 C-23.10943604 12.90037842 -22.40246582 12.53903809 -21.67407227 12.16674805 C-19.67515472 11.02128225 -19.67515472 11.02128225 -19 8 C-16.9375 7.3125 -16.9375 7.3125 -15 7 C-15 6.34 -15 5.68 -15 5 C-12.525 5.495 -12.525 5.495 -10 6 C-10 5.34 -10 4.68 -10 4 C-6.87844121 2.99664182 -5.12599828 3.19329077 -2 4 C-1.01 3.67 -0.02 3.34 1 3 C0.34 2.34 -0.32 1.68 -1 1 C-0.67 0.67 -0.34 0.34 0 0 Z " fill="#FACB1B" transform="translate(314,384)"/>
<path d="M0 0 C0.33 0 0.66 0 1 0 C1 34.32 1 68.64 1 104 C0.34 104 -0.32 104 -1 104 C-1 103.34 -1 102.68 -1 102 C-2.65 101.34 -4.3 100.68 -6 100 C-4.0625 99.4375 -4.0625 99.4375 -2 99 C-1.67 99.33 -1.34 99.66 -1 100 C-0.67 67 -0.34 34 0 0 Z " fill="#F6C344" transform="translate(158,285)"/>
<path d="M0 0 C-1.2065625 0.185625 -1.2065625 0.185625 -2.4375 0.375 C-3.283125 0.58125 -4.12875 0.7875 -5 1 C-5.33 1.66 -5.66 2.32 -6 3 C-6.99 3 -7.98 3 -9 3 C-9.33 3.66 -9.66 4.32 -10 5 C-11.66666667 5.66666667 -13.33333333 6.33333333 -15 7 C-15.33 7.66 -15.66 8.32 -16 9 C-18 9 -20 9 -22 9 C-22 9.66 -22 10.32 -22 11 C-23.093125 11.309375 -24.18625 11.61875 -25.3125 11.9375 C-27.55407994 12.58337897 -29.7869351 13.2623117 -32 14 C-33.0525536 15.964604 -33.0525536 15.964604 -33.625 18.0625 C-35 20 -35 20 -38.625 20.75 C-39.73875 20.8325 -40.8525 20.915 -42 21 C-40.74381926 17.23145777 -39.33985294 16.92041544 -36 15 C-35.67 14.34 -35.34 13.68 -35 13 C-31.71004965 11.10915665 -28.26875104 9.519498 -24.84570312 7.88378906 C-22.91833607 6.96089637 -20.99844481 6.02339411 -19.078125 5.0859375 C-17.76087228 4.45217715 -16.4431706 3.81934901 -15.125 3.1875 C-14.50737793 2.88561768 -13.88975586 2.58373535 -13.25341797 2.27270508 C-4.10446453 -2.05223227 -4.10446453 -2.05223227 0 0 Z " fill="#F9D234" transform="translate(306,373)"/>
<path d="M0 0 C1.60725635 3.21451269 1.05748185 6.43612536 1 10 C-2.66578193 8.8720671 -6.21810814 7.5517145 -9.75 6.0625 C-10.50796875 5.74410156 -11.2659375 5.42570313 -12.046875 5.09765625 C-14 4 -14 4 -16 1 C-14.08351538 0.83125293 -12.16680367 0.66508357 -10.25 0.5 C-9.18265625 0.4071875 -8.1153125 0.314375 -7.015625 0.21875 C-4.6820782 0.04947717 -2.33967818 0 0 0 Z " fill="#FEFAE6" transform="translate(131,190)"/>
<path d="M0 0 C0.86882812 0.27714844 1.73765625 0.55429687 2.6328125 0.83984375 C3.78523437 1.20207031 4.93765625 1.56429688 6.125 1.9375 C7.26195312 2.29714844 8.39890625 2.65679687 9.5703125 3.02734375 C12.71432699 3.91898339 15.76894393 4.53351014 19 5 C19 6.32 19 7.64 19 9 C19.845625 9.226875 20.69125 9.45375 21.5625 9.6875 C25.67404851 11.25736398 28.50393484 13.34299048 32 16 C31.01 16.33 30.02 16.66 29 17 C27.14967338 15.90351015 25.30704177 14.79174323 23.5078125 13.61328125 C12.59740607 6.27224467 12.59740607 6.27224467 0 5 C-0.5625 3.0625 -0.5625 3.0625 -1 1 C-0.67 0.67 -0.34 0.34 0 0 Z " fill="#F9CF2A" transform="translate(125,391)"/>
<path d="M0 0 C-0.598125 0.28875 -1.19625 0.5775 -1.8125 0.875 C-4.19327792 2.04742026 -4.19327792 2.04742026 -7 4 C-9.06806951 5.03403476 -10.73616208 5.37994525 -13 5.8125 C-17.55156963 6.77887864 -21.66488024 8.36490952 -25.93359375 10.1953125 C-28 11 -28 11 -30 11 C-30.33 11.66 -30.66 12.32 -31 13 C-32.890625 13.78125 -32.890625 13.78125 -35.25 14.5 C-38.5650544 15.54157212 -41.79246459 16.65490451 -45 18 C-44 15 -44 15 -41.17578125 13.45703125 C-39.89380379 12.89546309 -38.60542248 12.34838849 -37.3125 11.8125 C-36.61785645 11.51786865 -35.92321289 11.2232373 -35.20751953 10.91967773 C-28.98581886 8.3249319 -22.69122875 5.91626607 -16.375 3.5625 C-15.43954346 3.20841064 -14.50408691 2.85432129 -13.5402832 2.48950195 C-8.8843414 0.79264928 -5.03841504 -0.47705923 0 0 Z " fill="#F9D535" transform="translate(334,187)"/>
<path d="M0 0 C5.27574042 0.61139422 9.00824554 3.37934952 13.27148438 6.29296875 C16.48684112 8.53166236 16.48684112 8.53166236 20.23828125 8.58984375 C20.81964844 8.39519531 21.40101563 8.20054687 22 8 C24.625 10.4375 24.625 10.4375 27 13 C27.66 13 28.32 13 29 13 C29 14.65 29 16.3 29 18 C28.01 18 27.02 18 26 18 C26 17.34 26 16.68 26 16 C25.26007813 15.72671875 24.52015625 15.4534375 23.7578125 15.171875 C21.17401352 14.07394342 19.15807585 12.8646468 16.875 11.25 C12.48481529 8.23451959 7.91615658 5.74001423 3.1875 3.296875 C1 2 1 2 0 0 Z " fill="#F5D12F" transform="translate(132,220)"/>
<path d="M0 0 C6.43654904 0.50135777 11.54763123 2.16397207 17.4375 4.75 C18.23220703 5.08515625 19.02691406 5.4203125 19.84570312 5.765625 C25.43696569 8.16772967 30.73412995 10.9540324 36 14 C35.67 14.66 35.34 15.32 35 16 C34.22136597 15.6443396 34.22136597 15.6443396 33.42700195 15.28149414 C31.0579332 14.20305916 28.68528842 13.13272454 26.3125 12.0625 C25.49587891 11.68931641 24.67925781 11.31613281 23.83789062 10.93164062 C19.89542954 9.15992734 16.30503035 7.65028183 12 7 C11.34 6.67 10.68 6.34 10 6 C10 5.34 10 4.68 10 4 C9.278125 3.87625 8.55625 3.7525 7.8125 3.625 C5.04278106 3.0095069 2.6029646 2.11555626 0 1 C0 0.67 0 0.34 0 0 Z " fill="#F8D336" transform="translate(114,367)"/>
<path d="M0 0 C-7.7779193 3.710567 -15.71331563 6.93144084 -23.74121094 10.05664062 C-27.75270731 11.63354112 -31.65066934 13.27926357 -35.48828125 15.24609375 C-39 17 -39 17 -41 17 C-41 16.34 -41 15.68 -41 15 C-39.97261719 14.55269531 -38.94523437 14.10539062 -37.88671875 13.64453125 C-36.48691077 13.03401096 -35.08717637 12.42332196 -33.6875 11.8125 C-32.95635986 11.49369873 -32.22521973 11.17489746 -31.47192383 10.84643555 C-27.35509693 9.04653947 -23.26169759 7.20747562 -19.1875 5.3125 C-4.34247123 -1.44749041 -4.34247123 -1.44749041 0 0 Z " fill="#2F54A4" transform="translate(315,404)"/>
<path d="M0 0 C7.170489 0.57294464 13.57708415 2.58716101 20.375 4.875 C21.46683594 5.22691406 22.55867188 5.57882813 23.68359375 5.94140625 C24.72386719 6.28816406 25.76414062 6.63492188 26.8359375 6.9921875 C28.25205322 7.46180908 28.25205322 7.46180908 29.69677734 7.94091797 C32 9 32 9 34 12 C32.39482903 11.91266424 30.79078338 11.80447776 29.1875 11.6875 C27.84751953 11.60048828 27.84751953 11.60048828 26.48046875 11.51171875 C23.61474717 10.92052264 22.94481124 10.08372633 21 8 C19.10024117 7.29157773 19.10024117 7.29157773 17.0625 6.9375 C14.06027781 6.33011401 11.72417343 5.39073481 9 4 C7.42596224 3.43188703 5.8421699 2.89011379 4.25 2.375 C3.05117187 1.98441406 3.05117187 1.98441406 1.828125 1.5859375 C1.22484375 1.39257812 0.6215625 1.19921875 0 1 C0 0.67 0 0.34 0 0 Z " fill="#FCD43C" transform="translate(82,181)"/>
<path d="M0 0 C0.66 0 1.32 0 2 0 C2.66 1.32 3.32 2.64 4 4 C8.95 4 13.9 4 19 4 C19 4.66 19 5.32 19 6 C21.97 6.66 24.94 7.32 28 8 C28 8.33 28 8.66 28 9 C7.98500644 9.69017219 7.98500644 9.69017219 1 5 C0.25 2.375 0.25 2.375 0 0 Z " fill="#FCD636" transform="translate(48,367)"/>
<path d="M0 0 C0.66 0.33 1.32 0.66 2 1 C1.22398437 1.59425781 0.44796875 2.18851562 -0.3515625 2.80078125 C-7.07777624 7.9595789 -13.77192217 13.15549994 -20.41650391 18.41918945 C-27.83628707 24.27911962 -27.83628707 24.27911962 -33 24 C-32.11622681 23.58923218 -32.11622681 23.58923218 -31.21459961 23.17016602 C-29.07374652 22.03896672 -27.41404118 20.83232045 -25.56640625 19.27734375 C-24.92316406 18.74262451 -24.27992188 18.20790527 -23.6171875 17.65698242 C-22.93914062 17.08955322 -22.26109375 16.52212402 -21.5625 15.9375 C-14.6249953 10.20495554 -7.50143523 4.97098533 0 0 Z " fill="#294FA4" transform="translate(245,462)"/>
<path d="M0 0 C-0.33 0.66 -0.66 1.32 -1 2 C-3.14208984 2.47070312 -3.14208984 2.47070312 -5.9609375 2.78125 C-6.99089844 2.90113281 -8.02085937 3.02101563 -9.08203125 3.14453125 C-10.16871094 3.26183594 -11.25539063 3.37914062 -12.375 3.5 C-19.57287692 4.30566642 -26.65271294 5.21930404 -33.74462891 6.71289062 C-36 7 -36 7 -39 6 C-32.7776119 4.04060971 -26.49175768 2.94062282 -20.0625 1.875 C-19.01642578 1.69324219 -17.97035156 1.51148438 -16.89257812 1.32421875 C-11.17629923 0.36851153 -5.7945691 -0.20919022 0 0 Z " fill="#2D4FA8" transform="translate(385,388)"/>
<path d="M0 0 C5.09794569 0.58783469 9.1260741 2.96828655 13.5625 5.375 C14.31724609 5.77460938 15.07199219 6.17421875 15.84960938 6.5859375 C19.43444733 8.5062736 22.84530709 10.40595543 26 13 C25.67 13.66 25.34 14.32 25 15 C21.05960984 13.86166506 18.83025459 12.88417276 16 10 C14.76287978 9.20224025 13.49576185 8.44966054 12.20703125 7.73828125 C11.49482422 7.34189453 10.78261719 6.94550781 10.04882812 6.53710938 C9.31083984 6.13298828 8.57285156 5.72886719 7.8125 5.3125 C7.06291016 4.89677734 6.31332031 4.48105469 5.54101562 4.05273438 C3.69651534 3.03062275 1.8485869 2.0147019 0 1 C0 0.67 0 0.34 0 0 Z " fill="#F9D838" transform="translate(133,200)"/>
<path d="M0 0 C-6.75 4 -6.75 4 -9 4 C-9 4.66 -9 5.32 -9 6 C-9.66 6 -10.32 6 -11 6 C-11.12375 6.639375 -11.2475 7.27875 -11.375 7.9375 C-11.58125 8.618125 -11.7875 9.29875 -12 10 C-12.99 10.495 -12.99 10.495 -14 11 C-14.65555119 13.52733235 -14.65555119 13.52733235 -15 16 C-15.33 16 -15.66 16 -16 16 C-16.28768303 7.36950904 -16.28768303 7.36950904 -14 4 C-11.7578125 2.48046875 -11.7578125 2.48046875 -9.125 1.1875 C-8.26132812 0.74792969 -7.39765625 0.30835938 -6.5078125 -0.14453125 C-3.79276303 -1.07069298 -2.63940258 -1.00051772 0 0 Z " fill="#F4CE28" transform="translate(288,206)"/>
<path d="M0 0 C0 0.66 0 1.32 0 2 C-2.97544441 3.13501477 -5.95596528 4.25609196 -8.9375 5.375 C-9.76830078 5.69210938 -10.59910156 6.00921875 -11.45507812 6.3359375 C-16.92393568 8.37877923 -22.27394996 9.8559456 -28 11 C-27 9 -27 9 -24 8 C-24 7.01 -24 6.02 -24 5 C-23.34 5 -22.68 5 -22 5 C-22 5.66 -22 6.32 -22 7 C-21.31035156 6.74605469 -20.62070313 6.49210938 -19.91015625 6.23046875 C-2.8988764 0 -2.8988764 0 0 0 Z " fill="#3353A6" transform="translate(179,143)"/>
<path d="M0 0 C2.3431213 0.25561323 4.67843403 0.59270772 7 1 C7.33 1.66 7.66 2.32 8 3 C10.01669827 4.13350534 10.01669827 4.13350534 12 5 C11.67 5.66 11.34 6.32 11 7 C5.63242739 6.53727822 1.69499891 5.86280421 -3 3 C-3.33 2.34 -3.66 1.68 -4 1 C-2.68 1.33 -1.36 1.66 0 2 C0 1.34 0 0.68 0 0 Z " fill="#F9CD24" transform="translate(121,386)"/>
<path d="M0 0 C3.6875 -0.3125 3.6875 -0.3125 7 0 C7 0.66 7 1.32 7 2 C4 4 4 4 0 4 C-0.33 8.95 -0.66 13.9 -1 19 C-1.66 18.67 -2.32 18.34 -3 18 C-3.08150744 15.93816367 -3.1394194 13.87538651 -3.1875 11.8125 C-3.22230469 10.66394531 -3.25710937 9.51539063 -3.29296875 8.33203125 C-2.97144125 4.67519185 -2.32146732 2.82796928 0 0 Z " fill="#E9C642" transform="translate(51,174)"/>
<path d="M0 0 C6.01224055 -0.37072797 10.72020673 0.90452909 16.375 2.875 C17.60283203 3.27912109 17.60283203 3.27912109 18.85546875 3.69140625 C24.8676792 5.73535839 24.8676792 5.73535839 26 8 C25.19175781 7.7834375 24.38351563 7.566875 23.55078125 7.34375 C22.48214844 7.0653125 21.41351563 6.786875 20.3125 6.5 C19.25675781 6.2215625 18.20101562 5.943125 17.11328125 5.65625 C14.08874717 4.90081482 14.08874717 4.90081482 11.29296875 5.03125 C9 5 9 5 6 3 C4.01200182 2.29835358 2.01301483 1.62627128 0 1 C0 0.67 0 0.34 0 0 Z " fill="#FBDD3C" transform="translate(87,359)"/>
<path d="M0 0 C5.95307741 -0.37947904 10.39965221 0.89305534 15.9375 3 C16.71673828 3.28617188 17.49597656 3.57234375 18.29882812 3.8671875 C20.20294317 4.56808874 22.1020195 5.28265304 24 6 C24.33 4.68 24.66 3.36 25 2 C25.33 3.65 25.66 5.3 26 7 C21.8242594 8.39191353 18.73243388 6.95562286 14.6875 5.6875 C13.94048828 5.46126953 13.19347656 5.23503906 12.42382812 5.00195312 C8.26014082 3.73347244 4.12284524 2.39613042 0 1 C0 0.67 0 0.34 0 0 Z " fill="#2D4AAF" transform="translate(274,153)"/>
<path d="M0 0 C0.33 0 0.66 0 1 0 C1 10.89 1 21.78 1 33 C0.34 33 -0.32 33 -1 33 C-1 32.34 -1 31.68 -1 31 C-3.475 30.01 -3.475 30.01 -6 29 C-4.0625 28.4375 -4.0625 28.4375 -2 28 C-1.67 28.33 -1.34 28.66 -1 29 C-0.67 19.43 -0.34 9.86 0 0 Z " fill="#EFBF29" transform="translate(158,356)"/>
<path d="M0 0 C-1.16004768 3.48014304 -1.60293257 3.62268926 -4.7109375 5.2265625 C-5.46117187 5.6184375 -6.21140625 6.0103125 -6.984375 6.4140625 C-8.16773438 7.01347656 -8.16773438 7.01347656 -9.375 7.625 C-10.15617187 8.03234375 -10.93734375 8.4396875 -11.7421875 8.859375 C-14.81423317 10.44800136 -17.71258084 11.90419361 -21 13 C-21 12.34 -21 11.68 -21 11 C-18.6098423 9.40656153 -16.23222667 7.93611266 -13.75 6.5 C-13.06808594 6.09652344 -12.38617188 5.69304687 -11.68359375 5.27734375 C-2.71385107 0 -2.71385107 0 0 0 Z " fill="#2A50A7" transform="translate(272,421)"/>
<path d="M0 0 C0 0.66 0 1.32 0 2 C-0.81005493 2.31022095 -0.81005493 2.31022095 -1.63647461 2.62670898 C-4.07121595 3.56088784 -6.50436819 4.49913747 -8.9375 5.4375 C-9.78763672 5.76298828 -10.63777344 6.08847656 -11.51367188 6.42382812 C-12.32255859 6.73642578 -13.13144531 7.04902344 -13.96484375 7.37109375 C-14.7137085 7.65911865 -15.46257324 7.94714355 -16.23413086 8.24389648 C-17.99029133 8.86639115 -17.99029133 8.86639115 -19 10 C-20.66617115 10.04063832 -22.33388095 10.042721 -24 10 C-21.83906595 7.83906595 -20.31440889 7.17633186 -17.5 6.0546875 C-16.613125 5.70019531 -15.72625 5.34570312 -14.8125 4.98046875 C-13.884375 4.61566406 -12.95625 4.25085938 -12 3.875 C-11.071875 3.50246094 -10.14375 3.12992188 -9.1875 2.74609375 C-2.26694139 0 -2.26694139 0 0 0 Z " fill="#F9D832" transform="translate(321,210)"/>
<path d="M0 0 C-0.33 0.99 -0.66 1.98 -1 3 C-6.37084106 3.68201156 -11.58500559 4.11521265 -17 4 C-17 3.34 -17 2.68 -17 2 C-11.16200408 0.30167391 -6.06892629 -0.25287193 0 0 Z " fill="#F7D131" transform="translate(350,360)"/>
<path d="M0 0 C2.29199177 0.14063135 4.58359186 0.28765943 6.875 0.4375 C8.15117188 0.51871094 9.42734375 0.59992188 10.7421875 0.68359375 C14 1 14 1 16 2 C16 2.66 16 3.32 16 4 C16.66 4 17.32 4 18 4 C18 4.66 18 5.32 18 6 C11.68878497 4.9007105 5.93661416 3.41862058 0 1 C0 0.67 0 0.34 0 0 Z " fill="#F6D12C" transform="translate(70,197)"/>
<path d="M0 0 C0.90492187 0.2165625 0.90492187 0.2165625 1.828125 0.4375 C2.62734375 0.623125 3.4265625 0.80875 4.25 1 C5.03890625 1.185625 5.8278125 1.37125 6.640625 1.5625 C9.25556002 2.12154828 9.25556002 2.12154828 13 2 C16 3 16 3 17 5 C17.99 5.66 18.98 6.32 20 7 C15.98873694 8.33708769 14.42736898 7.21306194 10.5625 5.625 C5.3834691 3.49126702 5.3834691 3.49126702 0 2 C0 1.34 0 0.68 0 0 Z " fill="#F5D22D" transform="translate(89,202)"/>
<path d="M0 0 C0.33 0.99 0.66 1.98 1 3 C0.34 3.66 -0.32 4.32 -1 5 C-1.66 4.01 -2.32 3.02 -3 2 C-5.80435411 1.94367576 -8.35146678 2.04185298 -11.125 2.3125 C-11.87910156 2.37373047 -12.63320313 2.43496094 -13.41015625 2.49804688 C-15.27463438 2.6514533 -17.13752498 2.82393459 -19 3 C-19 2.34 -19 1.68 -19 1 C-16.96044851 0.63384906 -14.91821752 0.28260721 -12.875 -0.0625 C-11.73804688 -0.25972656 -10.60109375 -0.45695313 -9.4296875 -0.66015625 C-6.0246108 -0.99756134 -3.32821869 -0.72330588 0 0 Z " fill="#F9DC35" transform="translate(372,179)"/>
<path d="M0 0 C0.66 0.66 1.32 1.32 2 2 C0.35 2.33 -1.3 2.66 -3 3 C-3 3.66 -3 4.32 -3 5 C-9.75 9 -9.75 9 -12 9 C-12 7.35 -12 5.7 -12 4 C-9.3333581 2.66667905 -7.83319697 3.32897967 -5 4 C-5 3.34 -5 2.68 -5 2 C-3.35 1.34 -1.7 0.68 0 0 Z " fill="#FCD134" transform="translate(274,406)"/>
<path d="M0 0 C0.66 1.32 1.32 2.64 2 4 C1.09507812 4.58201172 1.09507812 4.58201172 0.171875 5.17578125 C-2.36178177 7.30387066 -3.35524517 9.2042744 -4.75 12.1875 C-5.17796875 13.08855469 -5.6059375 13.98960938 -6.046875 14.91796875 C-6.51867187 15.94857422 -6.51867187 15.94857422 -7 17 C-7.66 17 -8.32 17 -9 17 C-8.35826346 12.88473708 -6.13013842 9.69611565 -3.9375 6.25 C-3.56044922 5.64800781 -3.18339844 5.04601562 -2.79492188 4.42578125 C-1.86806837 2.94750857 -0.93467611 1.47333911 0 0 Z " fill="#2B49B2" transform="translate(180,70)"/>
<path d="M0 0 C0 0.66 0 1.32 0 2 C-2.76317623 3.37021794 -5.53658478 4.71830176 -8.3125 6.0625 C-9.49102539 6.64741211 -9.49102539 6.64741211 -10.69335938 7.24414062 C-11.45068359 7.60830078 -12.20800781 7.97246094 -12.98828125 8.34765625 C-13.68477783 8.68804932 -14.38127441 9.02844238 -15.09887695 9.37915039 C-17 10 -17 10 -20 9 C-17.23456804 7.48987869 -14.46183193 5.99369852 -11.6875 4.5 C-10.90181641 4.07074219 -10.11613281 3.64148438 -9.30664062 3.19921875 C-8.54931641 2.79316406 -7.79199219 2.38710938 -7.01171875 1.96875 C-6.31522217 1.59169922 -5.61872559 1.21464844 -4.90112305 0.82617188 C-3 0 -3 0 0 0 Z " fill="#FCDB33" transform="translate(297,395)"/>
<path d="M0 0 C6.67491831 -0.45510807 12.59374557 1.2327574 19 3 C19 3.66 19 4.32 19 5 C12.54189755 4.00318287 6.23428168 2.98363508 0 1 C0 0.67 0 0.34 0 0 Z " fill="#F9D639" transform="translate(61,176)"/>
<path d="M0 0 C0 0.66 0 1.32 0 2 C-1.91512272 2.50588147 -3.83216922 3.00448391 -5.75 3.5 C-7.35101563 3.91765625 -7.35101563 3.91765625 -8.984375 4.34375 C-12 5 -12 5 -16 5 C-16 4.34 -16 3.68 -16 3 C-14.08487728 2.49411853 -12.16783078 1.99551609 -10.25 1.5 C-8.64898437 1.08234375 -8.64898437 1.08234375 -7.015625 0.65625 C-4 0 -4 0 0 0 Z " fill="#F9DB31" transform="translate(349,202)"/>
<path d="M0 0 C6.31631828 0.40316925 10.64993984 2.71232131 16 6 C15.67 6.66 15.34 7.32 15 8 C10.05 5.69 5.1 3.38 0 1 C0 0.67 0 0.34 0 0 Z " fill="#F6D836" transform="translate(134,375)"/>
<path d="M0 0 C-0.99 0.33 -1.98 0.66 -3 1 C-3.33 1.66 -3.66 2.32 -4 3 C-6.94140625 3.6328125 -6.94140625 3.6328125 -10.5625 4.125 C-11.76003906 4.29257813 -12.95757812 4.46015625 -14.19140625 4.6328125 C-15.11824219 4.75398437 -16.04507812 4.87515625 -17 5 C-15.68000515 2.36001029 -14.63086688 2.29985024 -11.875 1.375 C-7.72529737 0.05373468 -4.32795771 -0.27625262 0 0 Z " fill="#F9DA37" transform="translate(352,182)"/>
<path d="M0 0 C0.33 0 0.66 0 1 0 C1 2.97 1 5.94 1 9 C-1.475 8.01 -1.475 8.01 -4 7 C-4 6.34 -4 5.68 -4 5 C-4.66 4.67 -5.32 4.34 -6 4 C-6 3.34 -6 2.68 -6 2 C-3.525 2.495 -3.525 2.495 -1 3 C-0.67 2.01 -0.34 1.02 0 0 Z " fill="#F9C824" transform="translate(160,402)"/>
<path d="M0 0 C0.99 0 1.98 0 3 0 C3.6875 2.8125 3.6875 2.8125 4 6 C2.75 7.875 2.75 7.875 1 9 C0.01 9 -0.98 9 -2 9 C-2 8.34 -2 7.68 -2 7 C-1.34 7 -0.68 7 0 7 C0 4.69 0 2.38 0 0 Z " fill="#FACA21" transform="translate(369,369)"/>
<path d="M0 0 C0 0.66 0 1.32 0 2 C4.455 2.99 4.455 2.99 9 4 C9 4.33 9 4.66 9 5 C7.56260487 5.02712066 6.12506137 5.04645067 4.6875 5.0625 C3.48673828 5.07990234 3.48673828 5.07990234 2.26171875 5.09765625 C0 5 0 5 -3 4 C-3 3.34 -3 2.68 -3 2 C-4.98 2 -6.96 2 -9 2 C-5.5647952 -0.29013653 -4.014669 -0.17842973 0 0 Z " fill="#FAD22A" transform="translate(67,371)"/>
<path d="M0 0 C-2.12282669 1.00460531 -4.24833021 2.00355602 -6.375 3 C-8.15003906 3.8353125 -8.15003906 3.8353125 -9.9609375 4.6875 C-13 6 -13 6 -15 6 C-15 5.34 -15 4.68 -15 4 C-13.25705322 3.13153169 -11.50531337 2.28069373 -9.75 1.4375 C-8.77546875 0.96183594 -7.8009375 0.48617188 -6.796875 -0.00390625 C-3.90143703 -1.03510273 -2.80033839 -1.11346788 0 0 Z " fill="#2B49AC" transform="translate(289,415)"/>
<path d="M0 0 C0.556875 0.226875 1.11375 0.45375 1.6875 0.6875 C1.6875 1.3475 1.6875 2.0075 1.6875 2.6875 C0.3675 2.6875 -0.9525 2.6875 -2.3125 2.6875 C-2.3125 3.3475 -2.3125 4.0075 -2.3125 4.6875 C-6.7675 5.1825 -6.7675 5.1825 -11.3125 5.6875 C-3.40789474 -0.46052632 -3.40789474 -0.46052632 0 0 Z " fill="#EECB22" transform="translate(286.3125,379.3125)"/>
<path d="M0 0 C3.6875 1.375 3.6875 1.375 7 3 C3.86501708 4.85776765 1.62528568 5.20140476 -2 5 C-2.33 4.01 -2.66 3.02 -3 2 C-2.01 1.34 -1.02 0.68 0 0 Z " fill="#F9C314" transform="translate(133,375)"/>
<path d="M0 0 C0.33 0 0.66 0 1 0 C1 2.31 1 4.62 1 7 C3.64 5.68 6.28 4.36 9 3 C6.45170261 8.09659478 5.10645833 8.10871914 0 10 C0 6.7 0 3.4 0 0 Z " fill="#FAD648" transform="translate(271,226)"/>
<path d="M0 0 C2 1 2 1 4 4 C3.030625 4.28875 2.06125 4.5775 1.0625 4.875 C-2.10664203 5.64214682 -2.10664203 5.64214682 -3 8 C-4.32 8 -5.64 8 -7 8 C-5.84915735 4.54747204 -4.89256677 4.01603138 -2 2 C-1.34 1.34 -0.68 0.68 0 0 Z " fill="#F5C114" transform="translate(288,203)"/>
<path d="M0 0 C1.52519276 0.08937803 3.04681929 0.24537146 4.5625 0.4375 C5.38878906 0.53933594 6.21507812 0.64117187 7.06640625 0.74609375 C7.70449219 0.82988281 8.34257812 0.91367187 9 1 C9 1.66 9 2.32 9 3 C7.39935157 3.53154742 5.79431126 4.04988353 4.1875 4.5625 C3.29417969 4.85253906 2.40085937 5.14257812 1.48046875 5.44140625 C-1 6 -1 6 -4 5 C-2.35 4.34 -0.7 3.68 1 3 C0.34 2.34 -0.32 1.68 -1 1 C-0.67 0.67 -0.34 0.34 0 0 Z " fill="#FCD532" transform="translate(314,384)"/>
<path d="M0 0 C1.65 0 3.3 0 5 0 C5.33 0.66 5.66 1.32 6 2 C5.67 2.66 5.34 3.32 5 4 C3.68 4 2.36 4 1 4 C1 4.66 1 5.32 1 6 C-0.32 5.34 -1.64 4.68 -3 4 C-2.01 3.34 -1.02 2.68 0 2 C0 1.34 0 0.68 0 0 Z " fill="#F8C114" transform="translate(350,197)"/>
<path d="M0 0 C3.67882073 3.28466137 5.75150101 6.66360908 8 11 C8 11.66 8 12.32 8 13 C7.34 13 6.68 13 6 13 C4.4921875 10.91796875 4.4921875 10.91796875 2.875 8.1875 C2.33617187 7.29417969 1.79734375 6.40085937 1.2421875 5.48046875 C0 3 0 3 0 0 Z " fill="#2844AF" transform="translate(252,79)"/>
<path d="M0 0 C0.99 0.33 1.98 0.66 3 1 C2.34 2.32 1.68 3.64 1 5 C-0.65 5 -2.3 5 -4 5 C-4.33 3.68 -4.66 2.36 -5 1 C-3.35 1 -1.7 1 0 1 C0 0.67 0 0.34 0 0 Z " fill="#F9C712" transform="translate(112,365)"/>
<path d="M0 0 C0.66 0 1.32 0 2 0 C2 0.66 2 1.32 2 2 C3.98 1.67 5.96 1.34 8 1 C8 1.66 8 2.32 8 3 C6.56656 3.53190541 5.12804633 4.05015258 3.6875 4.5625 C2.48673828 4.99755859 2.48673828 4.99755859 1.26171875 5.44140625 C-1 6 -1 6 -4 5 C-2.68 4.34 -1.36 3.68 0 3 C0 2.01 0 1.02 0 0 Z " fill="#2C4FB7" transform="translate(155,148)"/>
<path d="M0 0 C2.31 0 4.62 0 7 0 C7 0.66 7 1.32 7 2 C4.09451118 4.04169485 2.59857954 5 -1 5 C-0.67 3.35 -0.34 1.7 0 0 Z " fill="#F9C212" transform="translate(287,394)"/>
<path d="M0 0 C0.80824219 0.28746094 1.61648437 0.57492187 2.44921875 0.87109375 C3.06410156 1.09925781 3.67898437 1.32742188 4.3125 1.5625 C4.3125 1.8925 4.3125 2.2225 4.3125 2.5625 C2.87594146 2.64381463 1.4380517 2.70183559 0 2.75 C-1.20076172 2.80220703 -1.20076172 2.80220703 -2.42578125 2.85546875 C-5.16601584 2.50051608 -5.97921079 1.66883718 -7.6875 -0.4375 C-4.20878379 -1.59707207 -3.34530355 -1.21206651 0 0 Z " fill="#F6CD24" transform="translate(131.6875,372.4375)"/>
<path d="M0 0 C7.42857143 -0.28571429 7.42857143 -0.28571429 11 2 C7.26513121 2.5745952 3.78706732 3 0 3 C0 2.01 0 1.02 0 0 Z " fill="#F8BF11" transform="translate(90,362)"/>
<path d="M0 0 C3.3 0 6.6 0 10 0 C9.67 0.99 9.34 1.98 9 3 C6.125 3.625 6.125 3.625 3 4 C2.34 3.34 1.68 2.68 1 2 C0.01 2.495 0.01 2.495 -1 3 C-0.67 2.01 -0.34 1.02 0 0 Z " fill="#F7C619" transform="translate(318,207)"/>
<path d="M0 0 C0.66 0 1.32 0 2 0 C1.690625 0.886875 1.38125 1.77375 1.0625 2.6875 C0.1709329 5.46709155 -0.49377007 8.13136375 -1 11 C-2.32 10.67 -3.64 10.34 -5 10 C-3.35 6.7 -1.7 3.4 0 0 Z " fill="#3552AA" transform="translate(133,150)"/>
<path d="M0 0 C2.64 0.99 5.28 1.98 8 3 C8 3.33 8 3.66 8 4 C5.36 4.33 2.72 4.66 0 5 C-0.5625 3.0625 -0.5625 3.0625 -1 1 C-0.67 0.67 -0.34 0.34 0 0 Z " fill="#FEFAE5" transform="translate(125,391)"/>
<path d="M0 0 C-1.25 1.5625 -1.25 1.5625 -3 3 C-5.1875 2.6875 -5.1875 2.6875 -7 2 C-7.33 2.66 -7.66 3.32 -8 4 C-8.66 3.67 -9.32 3.34 -10 3 C-10 2.34 -10 1.68 -10 1 C-3.375 -1.125 -3.375 -1.125 0 0 Z " fill="#F8C311" transform="translate(352,184)"/>
<path d="M0 0 C0.99 0.33 1.98 0.66 3 1 C2.67 2.32 2.34 3.64 2 5 C0.02 5.33 -1.96 5.66 -4 6 C-1.125 1.125 -1.125 1.125 0 0 Z " fill="#2F53C5" transform="translate(300,428)"/>
<path d="M0 0 C0 0.66 0 1.32 0 2 C-3.4019487 4.09350689 -6.05272412 4.17942163 -10 4 C-10 3.34 -10 2.68 -10 2 C-6.38026598 0.68373308 -3.90432869 0 0 0 Z " fill="#FAD738" transform="translate(332,363)"/>
<path d="M0 0 C3.32368224 1.10789408 3.61563093 1.48436217 5.25 4.375 C5.60578125 4.98085937 5.9615625 5.58671875 6.328125 6.2109375 C7 8 7 8 6 11 C4.99735282 9.35577799 3.99794896 7.70957779 3 6.0625 C2.443125 5.14597656 1.88625 4.22945312 1.3125 3.28515625 C0 1 0 1 0 0 Z " fill="#2845AD" transform="translate(290,144)"/>
<path d="M0 0 C-0.33 1.32 -0.66 2.64 -1 4 C-3.4375 3.625 -3.4375 3.625 -6 3 C-6.33 2.34 -6.66 1.68 -7 1 C-4.53721199 -0.231394 -2.7204945 -0.07159196 0 0 Z " fill="#FBC312" transform="translate(282,399)"/>
<path d="M0 0 C4.54805635 -0.17835515 7.8794254 0.00214565 12 2 C12 2.66 12 3.32 12 4 C6.06 2.515 6.06 2.515 0 1 C0 0.67 0 0.34 0 0 Z " fill="#2A58AB" transform="translate(274,153)"/>
<path d="M0 0 C4.54805635 -0.17835515 7.8794254 0.00214565 12 2 C8.92677456 2.91058531 6.19902639 3.08886184 3 3 C3 2.34 3 1.68 3 1 C2.01 0.67 1.02 0.34 0 0 Z " fill="#FBDB49" transform="translate(74,356)"/>
<path d="M0 0 C-0.598125 0.28875 -1.19625 0.5775 -1.8125 0.875 C-4.19327792 2.04742026 -4.19327792 2.04742026 -7 4 C-7.99 4 -8.98 4 -10 4 C-10.33 3.34 -10.66 2.68 -11 2 C-7.17010894 0.19769832 -4.21878192 -0.19622241 0 0 Z " fill="#FAD430" transform="translate(334,187)"/>
<path d="M0 0 C0.66 0 1.32 0 2 0 C1.35494404 3.48330216 0.01782732 6.09432866 -2 9 C-2.66 9 -3.32 9 -4 9 C-2.80100302 5.9168649 -1.52299523 2.93720508 0 0 Z " fill="#2944B5" transform="translate(138,141)"/>
<path d="M0 0 C0.99 0 1.98 0 3 0 C3 0.99 3 1.98 3 3 C2.01 3.495 2.01 3.495 1 4 C0.34444881 6.52733235 0.34444881 6.52733235 0 9 C-0.33 9 -0.66 9 -1 9 C-1.09765625 2.84765625 -1.09765625 2.84765625 -1 1 C-0.67 0.67 -0.34 0.34 0 0 Z " fill="#FACB31" transform="translate(273,213)"/>
<path d="M0 0 C5.75 1.875 5.75 1.875 8 3 C8 3.66 8 4.32 8 5 C2.25 3.125 2.25 3.125 0 2 C0 1.34 0 0.68 0 0 Z " fill="#2E50A4" transform="translate(151,419)"/>
<path d="M0 0 C2.31 0.33 4.62 0.66 7 1 C6.67 2.32 6.34 3.64 6 5 C4.02 4.01 2.04 3.02 0 2 C0 1.34 0 0.68 0 0 Z " fill="#F9C61B" transform="translate(132,218)"/>
</svg>
